  0
SECTION
  2
HEADER
  9
$ACADVER
  1
AC1027
  9
$ACADMAINTVER
 70
     8
  9
$DWGCODEPAGE
  3
ANSI_1252
  9
$REQUIREDVERSIONS
160
                 0
  9
$LASTSAVEDBY
  1
Batto
  9
$INSBASE
 10
0.0
 20
0.0
 30
0.0
  9
$EXTMIN
 10
6.350004999999999
 20
6.349862
 30
0.0
  9
$EXTMAX
 10
284.350234
 20
168.349995
 30
0.0
  9
$LIMMIN
 10
0.0
 20
0.0
  9
$LIMMAX
 10
12.0
 20
9.0
  9
$ORTHOMODE
 70
     1
  9
$REGENMODE
 70
     1
  9
$FILLMODE
 70
     1
  9
$QTEXTMODE
 70
     0
  9
$MIRRTEXT
 70
     1
  9
$LTSCALE
 40
1.0
  9
$ATTMODE
 70
     1
  9
$TEXTSIZE
 40
2.5
  9
$TRACEWID
 40
0.05
  9
$TEXTSTYLE
  7
STANDARD
  9
$CLAYER
  8
0
  9
$CELTYPE
  6
BYBLOCK
  9
$CECOLOR
 62
   256
  9
$CELTSCALE
 40
1.0
  9
$DISPSILH
 70
     0
  9
$DIMSCALE
 40
1.0
  9
$DIMASZ
 40
0.18
  9
$DIMEXO
 40
0.0625
  9
$DIMDLI
 40
0.38
  9
$DIMRND
 40
0.0
  9
$DIMDLE
 40
0.0
  9
$DIMEXE
 40
0.18
  9
$DIMTP
 40
0.0
  9
$DIMTM
 40
0.0
  9
$DIMTXT
 40
0.18
  9
$DIMCEN
 40
0.09
  9
$DIMTSZ
 40
0.0
  9
$DIMTOL
 70
     0
  9
$DIMLIM
 70
     0
  9
$DIMTIH
 70
     1
  9
$DIMTOH
 70
     1
  9
$DIMSE1
 70
     0
  9
$DIMSE2
 70
     0
  9
$DIMTAD
 70
     0
  9
$DIMZIN
 70
     0
  9
$DIMBLK
  1

  9
$DIMASO
 70
     1
  9
$DIMSHO
 70
     1
  9
$DIMPOST
  1

  9
$DIMAPOST
  1

  9
$DIMALT
 70
     0
  9
$DIMALTD
 70
     2
  9
$DIMALTF
 40
25.4
  9
$DIMLFAC
 40
1.0
  9
$DIMTOFL
 70
     0
  9
$DIMTVP
 40
0.0
  9
$DIMTIX
 70
     0
  9
$DIMSOXD
 70
     0
  9
$DIMSAH
 70
     0
  9
$DIMBLK1
  1

  9
$DIMBLK2
  1

  9
$DIMSTYLE
  2
ISO-25
  9
$DIMCLRD
 70
     0
  9
$DIMCLRE
 70
     0
  9
$DIMCLRT
 70
     0
  9
$DIMTFAC
 40
1.0
  9
$DIMGAP
 40
0.09
  9
$DIMJUST
 70
     0
  9
$DIMSD1
 70
     0
  9
$DIMSD2
 70
     0
  9
$DIMTOLJ
 70
     1
  9
$DIMTZIN
 70
     0
  9
$DIMALTZ
 70
     0
  9
$DIMALTTZ
 70
     0
  9
$DIMUPT
 70
     0
  9
$DIMDEC
 70
     4
  9
$DIMTDEC
 70
     4
  9
$DIMALTU
 70
     2
  9
$DIMALTTD
 70
     2
  9
$DIMTXSTY
  7
STANDARD
  9
$DIMAUNIT
 70
     0
  9
$DIMADEC
 70
     0
  9
$DIMALTRND
 40
0.0
  9
$DIMAZIN
 70
     0
  9
$DIMDSEP
 70
    46
  9
$DIMATFIT
 70
     3
  9
$DIMFRAC
 70
     0
  9
$DIMLDRBLK
  1

  9
$DIMLUNIT
 70
     2
  9
$DIMLWD
 70
    -2
  9
$DIMLWE
 70
    -2
  9
$DIMTMOVE
 70
     2
  9
$DIMFXL
 40
1.0
  9
$DIMFXLON
 70
     0
  9
$DIMJOGANG
 40
0.7853981633974483
  9
$DIMTFILL
 70
     0
  9
$DIMTFILLCLR
 70
     0
  9
$DIMARCSYM
 70
     0
  9
$DIMLTYPE
  6

  9
$DIMLTEX1
  6

  9
$DIMLTEX2
  6

  9
$DIMTXTDIRECTION
 70
     0
  9
$LUNITS
 70
     2
  9
$LUPREC
 70
     4
  9
$SKETCHINC
 40
0.1
  9
$FILLETRAD
 40
3.0
  9
$AUNITS
 70
     0
  9
$AUPREC
 70
     0
  9
$MENU
  1
.
  9
$ELEVATION
 40
0.0
  9
$PELEVATION
 40
0.0
  9
$THICKNESS
 40
0.0
  9
$LIMCHECK
 70
     0
  9
$CHAMFERA
 40
0.0
  9
$CHAMFERB
 40
0.0
  9
$CHAMFERC
 40
0.0
  9
$CHAMFERD
 40
0.0
  9
$SKPOLY
 70
     0
  9
$TDCREATE
 40
2447893.083333333
  9
$TDUCREATE
 40
0.0
  9
$TDUPDATE
 40
2457294.644878889
  9
$TDUUPDATE
 40
2457294.561545555
  9
$TDINDWG
 40
3.1785787384
  9
$TDUSRTIMER
 40
2457291.382953356
  9
$USRTIMER
 70
     1
  9
$ANGBASE
 50
0.0
  9
$ANGDIR
 70
     0
  9
$PDMODE
 70
     0
  9
$PDSIZE
 40
0.0
  9
$PLINEWID
 40
0.0
  9
$SPLFRAME
 70
     0
  9
$SPLINETYPE
 70
     6
  9
$SPLINESEGS
 70
     8
  9
$HANDSEED
  5
100EC
  9
$SURFTAB1
 70
     6
  9
$SURFTAB2
 70
     6
  9
$SURFTYPE
 70
     6
  9
$SURFU
 70
     6
  9
$SURFV
 70
     6
  9
$UCSBASE
  2

  9
$UCSNAME
  2

  9
$UCSORG
 10
0.0
 20
0.0
 30
0.0
  9
$UCSXDIR
 10
1.0
 20
0.0
 30
0.0
  9
$UCSYDIR
 10
0.0
 20
1.0
 30
0.0
  9
$UCSORTHOREF
  2

  9
$UCSORTHOVIEW
 70
     0
  9
$UCSORGTOP
 10
0.0
 20
0.0
 30
0.0
  9
$UCSORGBOTTOM
 10
0.0
 20
0.0
 30
0.0
  9
$UCSORGLEFT
 10
0.0
 20
0.0
 30
0.0
  9
$UCSORGRIGHT
 10
0.0
 20
0.0
 30
0.0
  9
$UCSORGFRONT
 10
0.0
 20
0.0
 30
0.0
  9
$UCSORGBACK
 10
0.0
 20
0.0
 30
0.0
  9
$PUCSBASE
  2

  9
$PUCSNAME
  2

  9
$PUCSORG
 10
0.0
 20
0.0
 30
0.0
  9
$PUCSXDIR
 10
1.0
 20
0.0
 30
0.0
  9
$PUCSYDIR
 10
0.0
 20
1.0
 30
0.0
  9
$PUCSORTHOREF
  2

  9
$PUCSORTHOVIEW
 70
     0
  9
$PUCSORGTOP
 10
0.0
 20
0.0
 30
0.0
  9
$PUCSORGBOTTOM
 10
0.0
 20
0.0
 30
0.0
  9
$PUCSORGLEFT
 10
0.0
 20
0.0
 30
0.0
  9
$PUCSORGRIGHT
 10
0.0
 20
0.0
 30
0.0
  9
$PUCSORGFRONT
 10
0.0
 20
0.0
 30
0.0
  9
$PUCSORGBACK
 10
0.0
 20
0.0
 30
0.0
  9
$USERI1
 70
     0
  9
$USERI2
 70
     0
  9
$USERI3
 70
     0
  9
$USERI4
 70
     0
  9
$USERI5
 70
     0
  9
$USERR1
 40
0.0
  9
$USERR2
 40
0.0
  9
$USERR3
 40
0.0
  9
$USERR4
 40
0.0
  9
$USERR5
 40
0.0
  9
$WORLDVIEW
 70
     1
  9
$SHADEDGE
 70
     3
  9
$SHADEDIF
 70
    70
  9
$TILEMODE
 70
     1
  9
$MAXACTVP
 70
    64
  9
$PINSBASE
 10
0.0
 20
0.0
 30
0.0
  9
$PLIMCHECK
 70
     0
  9
$PEXTMIN
 10
1.000000000000000E+20
 20
1.000000000000000E+20
 30
1.000000000000000E+20
  9
$PEXTMAX
 10
-1.000000000000000E+20
 20
-1.000000000000000E+20
 30
-1.000000000000000E+20
  9
$PLIMMIN
 10
0.0
 20
0.0
  9
$PLIMMAX
 10
0.0
 20
0.0
  9
$UNITMODE
 70
     0
  9
$VISRETAIN
 70
     1
  9
$PLINEGEN
 70
     0
  9
$PSLTSCALE
 70
     1
  9
$TREEDEPTH
 70
  3020
  9
$CMLSTYLE
  2

  9
$CMLJUST
 70
     0
  9
$CMLSCALE
 40
1.0
  9
$PROXYGRAPHICS
 70
     1
  9
$MEASUREMENT
 70
     1
  9
$CELWEIGHT
370
    -1
  9
$ENDCAPS
280
     0
  9
$JOINSTYLE
280
     0
  9
$LWDISPLAY
290
     0
  9
$INSUNITS
 70
     0
  9
$HYPERLINKBASE
  1

  9
$STYLESHEET
  1

  9
$XEDIT
290
     1
  9
$CEPSNTYPE
380
     0
  9
$PSTYLEMODE
290
     1
  9
$FINGERPRINTGUID
  2
{4B3A53A6-594E-457C-8667-F7A628B3DBC9}
  9
$VERSIONGUID
  2
{FAEB1C32-E019-11D5-929B-00C0DF256EC4}
  9
$EXTNAMES
290
     1
  9
$PSVPSCALE
 40
0.0
  9
$OLESTARTUP
290
     0
  9
$SORTENTS
280
   127
  9
$INDEXCTL
280
     0
  9
$HIDETEXT
280
     1
  9
$XCLIPFRAME
280
     2
  9
$HALOGAP
280
     0
  9
$OBSCOLOR
 70
   257
  9
$OBSLTYPE
280
     0
  9
$INTERSECTIONDISPLAY
280
     0
  9
$INTERSECTIONCOLOR
 70
   257
  9
$DIMASSOC
280
     2
  9
$PROJECTNAME
  1

  9
$CAMERADISPLAY
290
     0
  9
$LENSLENGTH
 40
50.0
  9
$CAMERAHEIGHT
 40
0.0
  9
$STEPSPERSEC
 40
2.0
  9
$STEPSIZE
 40
6.0
  9
$3DDWFPREC
 40
2.0
  9
$PSOLWIDTH
 40
0.25
  9
$PSOLHEIGHT
 40
4.0
  9
$LOFTANG1
 40
1.570796326794897
  9
$LOFTANG2
 40
1.570796326794897
  9
$LOFTMAG1
 40
0.0
  9
$LOFTMAG2
 40
0.0
  9
$LOFTPARAM
 70
     7
  9
$LOFTNORMALS
280
     1
  9
$LATITUDE
 40
37.795
  9
$LONGITUDE
 40
-122.394
  9
$NORTHDIRECTION
 40
0.0
  9
$TIMEZONE
 70
 -8000
  9
$LIGHTGLYPHDISPLAY
280
     1
  9
$TILEMODELIGHTSYNCH
280
     1
  9
$SOLIDHIST
280
     1
  9
$SHOWHIST
280
     1
  9
$DWFFRAME
280
     2
  9
$DGNFRAME
280
     2
  9
$REALWORLDSCALE
290
     1
  9
$INTERFERECOLOR
 62
   256
  9
$CSHADOW
280
     0
  9
$SHADOWPLANELOCATION
 40
0.0
  0
ENDSEC
  0
SECTION
  2
CLASSES
  0
CLASS
  1
SCALE
  2
AcDbScale
  3
ObjectDBX Classes
 90
     1153
 91
        7
280
     0
281
     0
  0
CLASS
  1
VISUALSTYLE
  2
AcDbVisualStyle
  3
ObjectDBX Classes
 90
     4095
 91
        7
280
     0
281
     0
  0
CLASS
  1
MATERIAL
  2
AcDbMaterial
  3
ObjectDBX Classes
 90
     1153
 91
        7
280
     0
281
     0
  0
CLASS
  1
TABLESTYLE
  2
AcDbTableStyle
  3
ObjectDBX Classes
 90
     4095
 91
        7
280
     0
281
     0
  0
CLASS
  1
SUN
  2
AcDbSun
  3
SCENEOE
 90
     1153
 91
        7
280
     0
281
     0
  0
CLASS
  1
RASTERVARIABLES
  2
AcDbRasterVariables
  3
ISM
 90
        0
 91
        7
280
     0
281
     0
  0
CLASS
  1
DICTIONARYVAR
  2
AcDbDictionaryVar
  3
ObjectDBX Classes
 90
        0
 91
        5
280
     0
281
     0
  0
CLASS
  1
CELLSTYLEMAP
  2
AcDbCellStyleMap
  3
ObjectDBX Classes
 90
     1152
 91
        5
280
     0
281
     0
  0
ENDSEC
  0
SECTION
  2
TABLES
  0
TABLE
  2
VPORT
  5
8
330
0
100
AcDbSymbolTable
 70
     1
  0
VPORT
  5
2E
330
8
100
AcDbSymbolTableRecord
100
AcDbViewportTableRecord
  2
*ACTIVE
 70
     0
 10
0.0
 20
0.0
 11
1.0
 21
1.0
 12
105.2892680507053
 22
83.97866578305116
 13
0.0
 23
0.0
 14
10.0
 24
10.0
 15
10.0
 25
10.0
 16
0.0
 26
0.0
 36
1.0
 17
0.0
 27
0.0
 37
0.0
 40
218.2399999999998
 41
2.306695464362851
 42
50.0
 43
0.0
 44
0.0
 50
0.0
 51
0.0
 71
    16
 72
   100
 73
     1
 74
     3
 75
     0
 76
     0
 77
     0
 78
     0
281
     0
 65
     1
110
0.0
120
0.0
130
0.0
111
1.0
121
0.0
131
0.0
112
0.0
122
1.0
132
0.0
 79
     0
146
0.0
348
10029
 60
     3
 61
     5
292
     1
282
     1
141
0.0
142
0.0
 63
   256
361
10044
  0
ENDTAB
  0
TABLE
  2
LTYPE
  5
5
330
0
100
AcDbSymbolTable
 70
     1
  0
LTYPE
  5
14
330
5
100
AcDbSymbolTableRecord
100
AcDbLinetypeTableRecord
  2
BYBLOCK
 70
     0
  3

 72
    65
 73
     0
 40
0.0
  0
LTYPE
  5
15
330
5
100
AcDbSymbolTableRecord
100
AcDbLinetypeTableRecord
  2
BYLAYER
 70
     0
  3

 72
    65
 73
     0
 40
0.0
  0
LTYPE
  5
16
330
5
100
AcDbSymbolTableRecord
100
AcDbLinetypeTableRecord
  2
CONTINUOUS
 70
     0
  3
Solid line
 72
    65
 73
     0
 40
0.0
  0
ENDTAB
  0
TABLE
  2
LAYER
  5
2
330
0
100
AcDbSymbolTable
 70
     1
  0
LAYER
  5
50
330
2
100
AcDbSymbolTableRecord
100
AcDbLayerTableRecord
  2
0
 70
     0
 62
     7
  6
CONTINUOUS
370
    -3
390
0
347
10040
348
0
  0
ENDTAB
  0
TABLE
  2
STYLE
  5
3
330
0
100
AcDbSymbolTable
 70
     1
  0
STYLE
  5
11
330
3
100
AcDbSymbolTableRecord
100
AcDbTextStyleTableRecord
  2
STANDARD
 70
     0
 40
0.0
 41
1.0
 50
0.0
 71
     0
 42
2.5
  3
txt
  4

  0
ENDTAB
  0
TABLE
  2
VIEW
  5
6
330
0
100
AcDbSymbolTable
 70
     0
  0
ENDTAB
  0
TABLE
  2
UCS
  5
7
330
0
100
AcDbSymbolTable
 70
     0
  0
ENDTAB
  0
TABLE
  2
APPID
  5
9
330
0
100
AcDbSymbolTable
 70
     1
  0
APPID
  5
12
330
9
100
AcDbSymbolTableRecord
100
AcDbRegAppTableRecord
  2
ACAD
 70
     0
  0
ENDTAB
  0
TABLE
  2
DIMSTYLE
  5
A
330
0
100
AcDbSymbolTable
 70
     1
100
AcDbDimStyleTable
  0
DIMSTYLE
105
27
330
A
100
AcDbSymbolTableRecord
100
AcDbDimStyleTableRecord
  2
ISO-25
 70
     0
 41
2.5
 42
0.625
 43
3.75
 44
1.25
 73
     0
 74
     0
 77
     1
 78
     8
140
2.5
141
2.5
143
0.03937007874016
147
0.625
171
     3
172
     1
178
     0
271
     2
272
     2
274
     3
283
     0
284
     8
340
11
  0
ENDTAB
  0
TABLE
  2
BLOCK_RECORD
  5
1
330
0
100
AcDbSymbolTable
 70
     0
  0
BLOCK_RECORD
  5
1F
330
1
100
AcDbSymbolTableRecord
100
AcDbBlockTableRecord
  2
*MODEL_SPACE
340
10022
 70
     0
280
     1
281
     0
  0
BLOCK_RECORD
  5
1B
330
1
100
AcDbSymbolTableRecord
100
AcDbBlockTableRecord
  2
*PAPER_SPACE
340
10023
 70
     0
280
     1
281
     0
  0
ENDTAB
  0
ENDSEC
  0
SECTION
  2
BLOCKS
  0
BLOCK
  5
20
330
1F
100
AcDbEntity
  8
0
100
AcDbBlockBegin
  2
*MODEL_SPACE
 70
     0
 10
0.0
 20
0.0
 30
0.0
  3
*MODEL_SPACE
  1
*MODEL_SPACE
  0
ENDBLK
  5
21
330
1F
100
AcDbEntity
  8
0
100
AcDbBlockEnd
  0
BLOCK
  5
1C
330
1B
100
AcDbEntity
 67
     1
  8
0
100
AcDbBlockBegin
  2
*PAPER_SPACE
 70
     0
 10
0.0
 20
0.0
 30
0.0
  3
*PAPER_SPACE
  1
*PAPER_SPACE
  0
ENDBLK
  5
1D
330
1B
100
AcDbEntity
 67
     1
  8
0
100
AcDbBlockEnd
  0
ENDSEC
  0
SECTION
  2
ENTITIES
  0
LWPOLYLINE
  5
101
330
1F
100
AcDbEntity
  8
0
 62
     7
100
AcDbPolyline
 90
      141
 70
     1
 43
0.0
 10
95.350078
 20
168.349995
 10
100.350083
 20
168.349995
 10
100.350083
 20
165.349992
 10
102.800084
 20
165.349992
 10
102.800084
 20
163.249991
 10
101.550083
 20
163.249991
 10
101.550083
 20
160.749989
 10
102.800084
 20
160.749989
 10
102.800084
 20
158.249986
 10
105.900087
 20
158.249986
 10
105.900087
 20
160.749989
 10
107.150088
 20
160.749989
 10
107.150088
 20
163.249991
 10
105.900087
 20
163.249991
 10
105.900087
 20
165.349992
 10
108.350089
 20
165.349992
 10
108.350089
 20
168.349995
 10
114.350094
 20
168.349995
 10
114.350094
 20
165.349992
 10
120.350099
 20
165.349992
 10
120.350099
 20
168.349995
 10
126.350104
 20
168.349995
 10
126.350104
 20
165.349992
 10
132.350109
 20
165.349992
 10
132.350109
 20
168.349995
 10
138.350114
 20
168.349995
 10
138.350114
 20
165.349992
 10
144.350119
 20
165.349992
 10
144.350119
 20
168.349995
 10
150.350124
 20
168.349995
 10
150.350124
 20
165.349992
 10
156.350129
 20
165.349992
 10
156.350129
 20
168.349995
 10
162.350133
 20
168.349995
 10
162.350133
 20
165.349992
 10
164.800136
 20
165.349992
 10
164.800136
 20
163.249991
 10
163.550134
 20
163.249991
 10
163.550134
 20
160.749989
 10
164.800136
 20
160.749989
 10
164.800136
 20
158.249986
 10
167.900138
 20
158.249986
 10
167.900138
 20
160.749989
 10
169.15014
 20
160.749989
 10
169.15014
 20
163.249991
 10
167.900138
 20
163.249991
 10
167.900138
 20
165.349992
 10
170.35014
 20
165.349992
 10
170.35014
 20
168.349995
 10
175.350144
 20
168.349995
 10
175.350144
 20
158.849987
 10
178.350147
 20
158.849987
 10
178.350147
 20
155.949985
 10
174.650143
 20
155.949985
 10
174.650143
 20
152.249982
 10
178.350147
 20
152.249982
 10
178.350147
 20
149.349979
 10
175.350144
 20
149.349979
 10
175.350144
 20
143.349974
 10
178.350147
 20
143.349974
 10
178.350147
 20
137.349969
 10
175.350144
 20
137.349969
 10
175.350144
 20
131.349964
 10
178.350147
 20
131.349964
 10
178.350147
 20
128.449962
 10
174.650143
 20
128.449962
 10
174.650143
 20
124.749958
 10
178.350147
 20
124.749958
 10
178.350147
 20
121.849958
 10
175.350144
 20
121.849958
 10
175.350144
 20
112.349949
 10
170.35014
 20
112.349949
 10
170.35014
 20
115.349951
 10
167.900138
 20
115.349951
 10
167.900138
 20
117.449953
 10
169.15014
 20
117.449953
 10
169.15014
 20
119.949956
 10
167.900138
 20
119.949956
 10
167.900138
 20
122.449957
 10
164.800136
 20
122.449957
 10
164.800136
 20
119.949956
 10
163.550134
 20
119.949956
 10
163.550134
 20
117.449953
 10
164.800136
 20
117.449953
 10
164.800136
 20
115.349951
 10
162.350133
 20
115.349951
 10
162.350133
 20
112.349949
 10
156.350129
 20
112.349949
 10
156.350129
 20
115.349951
 10
150.350124
 20
115.349951
 10
150.350124
 20
112.349949
 10
144.350119
 20
112.349949
 10
144.350119
 20
115.349951
 10
138.350114
 20
115.349951
 10
138.350114
 20
112.349949
 10
132.350109
 20
112.349949
 10
132.350109
 20
115.349951
 10
126.350104
 20
115.349951
 10
126.350104
 20
112.349949
 10
120.350099
 20
112.349949
 10
120.350099
 20
115.349951
 10
114.350094
 20
115.349951
 10
114.350094
 20
112.349949
 10
108.350089
 20
112.349949
 10
108.350089
 20
115.349951
 10
105.900087
 20
115.349951
 10
105.900087
 20
117.449953
 10
107.150088
 20
117.449953
 10
107.150088
 20
119.949956
 10
105.900087
 20
119.949956
 10
105.900087
 20
122.449957
 10
102.800084
 20
122.449957
 10
102.800084
 20
119.949956
 10
101.550083
 20
119.949956
 10
101.550083
 20
117.449953
 10
102.800084
 20
117.449953
 10
102.800084
 20
115.349951
 10
100.350083
 20
115.349951
 10
100.350083
 20
112.349949
 10
95.350078
 20
112.349949
 10
95.350078
 20
121.849958
 10
92.350076
 20
121.849958
 10
92.350076
 20
124.749958
 10
96.050079
 20
124.749958
 10
96.050079
 20
128.449962
 10
92.350076
 20
128.449962
 10
92.350076
 20
131.349964
 10
95.350078
 20
131.349964
 10
95.350078
 20
137.349969
 10
92.350076
 20
137.349969
 10
92.350076
 20
143.349974
 10
95.350078
 20
143.349974
 10
95.350078
 20
149.349979
 10
92.350076
 20
149.349979
 10
92.350076
 20
152.249982
 10
96.050079
 20
152.249982
 10
96.050079
 20
155.949985
 10
92.350076
 20
155.949985
 10
92.350076
 20
158.849987
 10
95.350078
 20
158.849987
 10
95.350078
 20
168.349995
  0
LWPOLYLINE
  5
102
330
1F
100
AcDbEntity
  8
0
 62
     7
100
AcDbPolyline
 90
      149
 70
     1
 43
0.0
 10
178.350147
 20
165.349992
 10
188.350155
 20
165.349992
 10
188.350155
 20
168.349995
 10
191.500157
 20
168.349995
 10
191.500157
 20
164.649992
 10
195.20016
 20
164.649992
 10
195.20016
 20
168.349995
 10
198.350163
 20
168.349995
 10
198.350163
 20
165.349992
 10
204.350168
 20
165.349992
 10
204.350168
 20
168.349995
 10
210.350173
 20
168.349995
 10
210.350173
 20
165.349992
 10
216.350178
 20
165.349992
 10
216.350178
 20
168.349995
 10
222.350183
 20
168.349995
 10
222.350183
 20
165.349992
 10
228.350188
 20
165.349992
 10
228.350188
 20
168.349995
 10
234.350193
 20
168.349995
 10
234.350193
 20
165.349992
 10
240.350198
 20
165.349992
 10
240.350198
 20
168.349995
 10
246.350203
 20
168.349995
 10
246.350203
 20
165.349992
 10
252.350207
 20
165.349992
 10
252.350207
 20
168.349995
 10
258.350212
 20
168.349995
 10
258.350212
 20
165.349992
 10
264.350217
 20
165.349992
 10
264.350217
 20
168.349995
 10
267.500221
 20
168.349995
 10
267.500221
 20
164.649992
 10
271.200222
 20
164.649992
 10
271.200222
 20
168.349995
 10
274.350226
 20
168.349995
 10
274.350226
 20
165.349992
 10
284.350234
 20
165.349992
 10
284.350234
 20
158.849987
 10
281.350231
 20
158.849987
 10
281.350231
 20
155.649984
 10
279.25023
 20
155.649984
 10
279.25023
 20
156.899985
 10
276.750226
 20
156.899985
 10
276.750226
 20
155.649984
 10
274.250226
 20
155.649984
 10
274.250226
 20
152.549982
 10
276.750226
 20
152.549982
 10
276.750226
 20
151.299981
 10
279.25023
 20
151.299981
 10
279.25023
 20
152.549982
 10
281.350231
 20
152.549982
 10
281.350231
 20
149.349979
 10
284.350234
 20
149.349979
 10
284.350234
 20
143.349974
 10
281.350231
 20
143.349974
 10
281.350231
 20
137.349969
 10
284.350234
 20
137.349969
 10
284.350234
 20
131.349964
 10
281.350231
 20
131.349964
 10
281.350231
 20
128.149962
 10
279.25023
 20
128.149962
 10
279.25023
 20
129.399964
 10
276.750226
 20
129.399964
 10
276.750226
 20
128.149962
 10
274.250226
 20
128.149962
 10
274.250226
 20
125.04996
 10
276.750226
 20
125.04996
 10
276.750226
 20
123.799958
 10
279.25023
 20
123.799958
 10
279.25023
 20
125.04996
 10
281.350231
 20
125.04996
 10
281.350231
 20
121.849958
 10
284.350234
 20
121.849958
 10
284.350234
 20
115.349951
 10
274.350226
 20
115.349951
 10
274.350226
 20
112.349949
 10
271.200222
 20
112.349949
 10
271.200222
 20
116.049953
 10
267.500221
 20
116.049953
 10
267.500221
 20
112.349949
 10
264.350217
 20
112.349949
 10
264.350217
 20
115.349951
 10
258.350212
 20
115.349951
 10
258.350212
 20
112.349949
 10
252.350207
 20
112.349949
 10
252.350207
 20
115.349951
 10
246.350203
 20
115.349951
 10
246.350203
 20
112.349949
 10
240.350198
 20
112.349949
 10
240.350198
 20
115.349951
 10
234.350193
 20
115.349951
 10
234.350193
 20
112.349949
 10
228.350188
 20
112.349949
 10
228.350188
 20
115.349951
 10
222.350183
 20
115.349951
 10
222.350183
 20
112.349949
 10
216.350178
 20
112.349949
 10
216.350178
 20
115.349951
 10
210.350173
 20
115.349951
 10
210.350173
 20
112.349949
 10
204.350168
 20
112.349949
 10
204.350168
 20
115.349951
 10
198.350163
 20
115.349951
 10
198.350163
 20
112.349949
 10
195.20016
 20
112.349949
 10
195.20016
 20
116.049953
 10
191.500157
 20
116.049953
 10
191.500157
 20
112.349949
 10
188.350155
 20
112.349949
 10
188.350155
 20
115.349951
 10
178.350147
 20
115.349951
 10
178.350147
 20
121.849958
 10
181.350149
 20
121.849958
 10
181.350149
 20
125.04996
 10
183.450151
 20
125.04996
 10
183.450151
 20
123.799958
 10
185.950153
 20
123.799958
 10
185.950153
 20
125.04996
 10
188.450155
 20
125.04996
 10
188.450155
 20
128.149962
 10
185.950153
 20
128.149962
 10
185.950153
 20
129.399964
 10
183.450151
 20
129.399964
 10
183.450151
 20
128.149962
 10
181.350149
 20
128.149962
 10
181.350149
 20
131.349964
 10
178.350147
 20
131.349964
 10
178.350147
 20
137.349969
 10
181.350149
 20
137.349969
 10
181.350149
 20
143.349974
 10
178.350147
 20
143.349974
 10
178.350147
 20
149.349979
 10
181.350149
 20
149.349979
 10
181.350149
 20
152.549982
 10
183.450151
 20
152.549982
 10
183.450151
 20
151.299981
 10
185.950153
 20
151.299981
 10
185.950153
 20
152.549982
 10
188.450155
 20
152.549982
 10
188.450155
 20
155.649984
 10
185.950153
 20
155.649984
 10
185.950153
 20
156.899985
 10
183.450151
 20
156.899985
 10
183.450151
 20
155.649984
 10
181.350149
 20
155.649984
 10
181.350149
 20
158.849987
 10
178.350147
 20
158.849987
 10
178.350147
 20
165.349992
  0
LWPOLYLINE
  5
103
330
1F
100
AcDbEntity
  8
0
 62
     7
100
AcDbPolyline
 90
      149
 70
     1
 43
0.0
 10
178.350147
 20
109.349946
 10
188.350155
 20
109.349946
 10
188.350155
 20
112.349949
 10
191.500157
 20
112.349949
 10
191.500157
 20
108.649946
 10
195.20016
 20
108.649946
 10
195.20016
 20
112.349949
 10
198.350163
 20
112.349949
 10
198.350163
 20
109.349946
 10
204.350168
 20
109.349946
 10
204.350168
 20
112.349949
 10
210.350173
 20
112.349949
 10
210.350173
 20
109.349946
 10
216.350178
 20
109.349946
 10
216.350178
 20
112.349949
 10
222.350183
 20
112.349949
 10
222.350183
 20
109.349946
 10
228.350188
 20
109.349946
 10
228.350188
 20
112.349949
 10
234.350193
 20
112.349949
 10
234.350193
 20
109.349946
 10
240.350198
 20
109.349946
 10
240.350198
 20
112.349949
 10
246.350203
 20
112.349949
 10
246.350203
 20
109.349946
 10
252.350207
 20
109.349946
 10
252.350207
 20
112.349949
 10
258.350212
 20
112.349949
 10
258.350212
 20
109.349946
 10
264.350217
 20
109.349946
 10
264.350217
 20
112.349949
 10
267.500221
 20
112.349949
 10
267.500221
 20
108.649946
 10
271.200222
 20
108.649946
 10
271.200222
 20
112.349949
 10
274.350226
 20
112.349949
 10
274.350226
 20
109.349946
 10
284.350234
 20
109.349946
 10
284.350234
 20
102.849941
 10
281.350231
 20
102.849941
 10
281.350231
 20
99.649938
 10
279.25023
 20
99.649938
 10
279.25023
 20
100.899939
 10
276.750226
 20
100.899939
 10
276.750226
 20
99.649938
 10
274.250226
 20
99.649938
 10
274.250226
 20
96.549936
 10
276.750226
 20
96.549936
 10
276.750226
 20
95.299935
 10
279.25023
 20
95.299935
 10
279.25023
 20
96.549936
 10
281.350231
 20
96.549936
 10
281.350231
 20
93.349933
 10
284.350234
 20
93.349933
 10
284.350234
 20
87.349928
 10
281.350231
 20
87.349928
 10
281.350231
 20
81.349923
 10
284.350234
 20
81.349923
 10
284.350234
 20
75.349918
 10
281.350231
 20
75.349918
 10
281.350231
 20
72.149916
 10
279.25023
 20
72.149916
 10
279.25023
 20
73.399918
 10
276.750226
 20
73.399918
 10
276.750226
 20
72.149916
 10
274.250226
 20
72.149916
 10
274.250226
 20
69.049914
 10
276.750226
 20
69.049914
 10
276.750226
 20
67.799912
 10
279.25023
 20
67.799912
 10
279.25023
 20
69.049914
 10
281.350231
 20
69.049914
 10
281.350231
 20
65.849912
 10
284.350234
 20
65.849912
 10
284.350234
 20
59.349905
 10
274.350226
 20
59.349905
 10
274.350226
 20
56.349903
 10
271.200222
 20
56.349903
 10
271.200222
 20
60.049907
 10
267.500221
 20
60.049907
 10
267.500221
 20
56.349903
 10
264.350217
 20
56.349903
 10
264.350217
 20
59.349905
 10
258.350212
 20
59.349905
 10
258.350212
 20
56.349903
 10
252.350207
 20
56.349903
 10
252.350207
 20
59.349905
 10
246.350203
 20
59.349905
 10
246.350203
 20
56.349903
 10
240.350198
 20
56.349903
 10
240.350198
 20
59.349905
 10
234.350193
 20
59.349905
 10
234.350193
 20
56.349903
 10
228.350188
 20
56.349903
 10
228.350188
 20
59.349905
 10
222.350183
 20
59.349905
 10
222.350183
 20
56.349903
 10
216.350178
 20
56.349903
 10
216.350178
 20
59.349905
 10
210.350173
 20
59.349905
 10
210.350173
 20
56.349903
 10
204.350168
 20
56.349903
 10
204.350168
 20
59.349905
 10
198.350163
 20
59.349905
 10
198.350163
 20
56.349903
 10
195.20016
 20
56.349903
 10
195.20016
 20
60.049907
 10
191.500157
 20
60.049907
 10
191.500157
 20
56.349903
 10
188.350155
 20
56.349903
 10
188.350155
 20
59.349905
 10
178.350147
 20
59.349905
 10
178.350147
 20
65.849912
 10
181.350149
 20
65.849912
 10
181.350149
 20
69.049914
 10
183.450151
 20
69.049914
 10
183.450151
 20
67.799912
 10
185.950153
 20
67.799912
 10
185.950153
 20
69.049914
 10
188.450155
 20
69.049914
 10
188.450155
 20
72.149916
 10
185.950153
 20
72.149916
 10
185.950153
 20
73.399918
 10
183.450151
 20
73.399918
 10
183.450151
 20
72.149916
 10
181.350149
 20
72.149916
 10
181.350149
 20
75.349918
 10
178.350147
 20
75.349918
 10
178.350147
 20
81.349923
 10
181.350149
 20
81.349923
 10
181.350149
 20
87.349928
 10
178.350147
 20
87.349928
 10
178.350147
 20
93.349933
 10
181.350149
 20
93.349933
 10
181.350149
 20
96.549936
 10
183.450151
 20
96.549936
 10
183.450151
 20
95.299935
 10
185.950153
 20
95.299935
 10
185.950153
 20
96.549936
 10
188.450155
 20
96.549936
 10
188.450155
 20
99.649938
 10
185.950153
 20
99.649938
 10
185.950153
 20
100.899939
 10
183.450151
 20
100.899939
 10
183.450151
 20
99.649938
 10
181.350149
 20
99.649938
 10
181.350149
 20
102.849941
 10
178.350147
 20
102.849941
 10
178.350147
 20
109.349946
  0
LWPOLYLINE
  5
104
330
1F
100
AcDbEntity
  8
0
 62
     7
100
AcDbPolyline
 90
      173
 70
     1
 43
0.0
 10
6.350005
 20
109.349946
 10
14.350012
 20
109.349946
 10
14.350012
 20
112.349949
 10
16.500013
 20
112.349949
 10
16.500013
 20
108.649946
 10
20.200016
 20
108.649946
 10
20.200016
 20
112.349949
 10
22.350018
 20
112.349949
 10
22.350018
 20
109.349946
 10
28.350023
 20
109.349946
 10
28.350023
 20
112.349949
 10
34.350028
 20
112.349949
 10
34.350028
 20
109.349946
 10
40.350033
 20
109.349946
 10
40.350033
 20
112.349949
 10
46.350038
 20
112.349949
 10
46.350038
 20
109.349946
 10
52.350043
 20
109.349946
 10
52.350043
 20
112.349949
 10
58.350048
 20
112.349949
 10
58.350048
 20
109.349946
 10
64.350053
 20
109.349946
 10
64.350053
 20
112.349949
 10
70.350058
 20
112.349949
 10
70.350058
 20
109.349946
 10
76.350063
 20
109.349946
 10
76.350063
 20
112.349949
 10
78.500066
 20
112.349949
 10
78.500066
 20
108.649946
 10
82.200067
 20
108.649946
 10
82.200067
 20
112.349949
 10
84.350069
 20
112.349949
 10
84.350069
 20
109.349946
 10
92.350076
 20
109.349946
 10
92.350076
 20
102.349941
 10
89.350073
 20
102.349941
 10
89.350073
 20
98.899938
 10
87.250072
 20
98.899938
 10
87.250072
 20
100.149939
 10
84.750069
 20
100.149939
 10
84.750069
 20
98.899938
 10
82.250068
 20
98.899938
 10
82.250068
 20
95.799935
 10
84.750069
 20
95.799935
 10
84.750069
 20
94.549934
 10
87.250072
 20
94.549934
 10
87.250072
 20
95.799935
 10
89.350073
 20
95.799935
 10
89.350073
 20
92.349932
 10
92.350076
 20
92.349932
 10
92.350076
 20
86.349927
 10
89.350073
 20
86.349927
 10
89.350073
 20
80.349922
 10
92.350076
 20
80.349922
 10
92.350076
 20
74.349917
 10
89.350073
 20
74.349917
 10
89.350073
 20
68.349913
 10
92.350076
 20
68.349913
 10
92.350076
 20
62.349908
 10
89.350073
 20
62.349908
 10
89.350073
 20
56.349903
 10
92.350076
 20
56.349903
 10
92.350076
 20
50.349898
 10
89.350073
 20
50.349898
 10
89.350073
 20
44.349893
 10
92.350076
 20
44.349893
 10
92.350076
 20
38.349888
 10
89.350073
 20
38.349888
 10
89.350073
 20
32.349883
 10
92.350076
 20
32.349883
 10
92.350076
 20
26.349878
 10
89.350073
 20
26.349878
 10
89.350073
 20
22.899875
 10
87.250072
 20
22.899875
 10
87.250072
 20
24.149877
 10
84.750069
 20
24.149877
 10
84.750069
 20
22.899875
 10
82.250068
 20
22.899875
 10
82.250068
 20
19.799873
 10
84.750069
 20
19.799873
 10
84.750069
 20
18.549871
 10
87.250072
 20
18.549871
 10
87.250072
 20
19.799873
 10
89.350073
 20
19.799873
 10
89.350073
 20
16.34987
 10
92.350076
 20
16.34987
 10
92.350076
 20
9.349864
 10
84.350069
 20
9.349864
 10
84.350069
 20
6.349862
 10
82.200067
 20
6.349862
 10
82.200067
 20
10.049865
 10
78.500066
 20
10.049865
 10
78.500066
 20
6.349862
 10
76.350063
 20
6.349862
 10
76.350063
 20
9.349864
 10
70.350058
 20
9.349864
 10
70.350058
 20
6.349862
 10
64.350053
 20
6.349862
 10
64.350053
 20
9.349864
 10
58.350048
 20
9.349864
 10
58.350048
 20
6.349862
 10
52.350043
 20
6.349862
 10
52.350043
 20
9.349864
 10
46.350038
 20
9.349864
 10
46.350038
 20
6.349862
 10
40.350033
 20
6.349862
 10
40.350033
 20
9.349864
 10
34.350028
 20
9.349864
 10
34.350028
 20
6.349862
 10
28.350023
 20
6.349862
 10
28.350023
 20
9.349864
 10
22.350018
 20
9.349864
 10
22.350018
 20
6.349862
 10
20.200016
 20
6.349862
 10
20.200016
 20
10.049865
 10
16.500013
 20
10.049865
 10
16.500013
 20
6.349862
 10
14.350012
 20
6.349862
 10
14.350012
 20
9.349864
 10
6.350005
 20
9.349864
 10
6.350005
 20
16.34987
 10
9.350008
 20
16.34987
 10
9.350008
 20
19.799873
 10
11.450009
 20
19.799873
 10
11.450009
 20
18.549871
 10
13.950011
 20
18.549871
 10
13.950011
 20
19.799873
 10
16.450014
 20
19.799873
 10
16.450014
 20
22.899875
 10
13.950011
 20
22.899875
 10
13.950011
 20
24.149877
 10
11.450009
 20
24.149877
 10
11.450009
 20
22.899875
 10
9.350008
 20
22.899875
 10
9.350008
 20
26.349878
 10
6.350005
 20
26.349878
 10
6.350005
 20
32.349883
 10
9.350008
 20
32.349883
 10
9.350008
 20
38.349888
 10
6.350005
 20
38.349888
 10
6.350005
 20
44.349893
 10
9.350008
 20
44.349893
 10
9.350008
 20
50.349898
 10
6.350005
 20
50.349898
 10
6.350005
 20
56.349903
 10
9.350008
 20
56.349903
 10
9.350008
 20
62.349908
 10
6.350005
 20
62.349908
 10
6.350005
 20
68.349913
 10
9.350008
 20
68.349913
 10
9.350008
 20
74.349917
 10
6.350005
 20
74.349917
 10
6.350005
 20
80.349922
 10
9.350008
 20
80.349922
 10
9.350008
 20
86.349927
 10
6.350005
 20
86.349927
 10
6.350005
 20
92.349932
 10
9.350008
 20
92.349932
 10
9.350008
 20
95.799935
 10
11.450009
 20
95.799935
 10
11.450009
 20
94.549934
 10
13.950011
 20
94.549934
 10
13.950011
 20
95.799935
 10
16.450014
 20
95.799935
 10
16.450014
 20
98.899938
 10
13.950011
 20
98.899938
 10
13.950011
 20
100.149939
 10
11.450009
 20
100.149939
 10
11.450009
 20
98.899938
 10
9.350008
 20
98.899938
 10
9.350008
 20
102.349941
 10
6.350005
 20
102.349941
 10
6.350005
 20
109.349946
  0
LWPOLYLINE
  5
105
330
1F
100
AcDbEntity
  8
0
 62
     7
100
AcDbPolyline
 90
      173
 70
     1
 43
0.0
 10
92.350076
 20
109.349946
 10
100.350083
 20
109.349946
 10
100.350083
 20
112.349949
 10
102.500084
 20
112.349949
 10
102.500084
 20
108.649946
 10
106.200087
 20
108.649946
 10
106.200087
 20
112.349949
 10
108.350089
 20
112.349949
 10
108.350089
 20
109.349946
 10
114.350094
 20
109.349946
 10
114.350094
 20
112.349949
 10
120.350099
 20
112.349949
 10
120.350099
 20
109.349946
 10
126.350104
 20
109.349946
 10
126.350104
 20
112.349949
 10
132.350109
 20
112.349949
 10
132.350109
 20
109.349946
 10
138.350114
 20
109.349946
 10
138.350114
 20
112.349949
 10
144.350119
 20
112.349949
 10
144.350119
 20
109.349946
 10
150.350124
 20
109.349946
 10
150.350124
 20
112.349949
 10
156.350129
 20
112.349949
 10
156.350129
 20
109.349946
 10
162.350133
 20
109.349946
 10
162.350133
 20
112.349949
 10
164.500136
 20
112.349949
 10
164.500136
 20
108.649946
 10
168.200137
 20
108.649946
 10
168.200137
 20
112.349949
 10
170.35014
 20
112.349949
 10
170.35014
 20
109.349946
 10
178.350147
 20
109.349946
 10
178.350147
 20
102.349941
 10
175.350144
 20
102.349941
 10
175.350144
 20
98.899938
 10
173.250143
 20
98.899938
 10
173.250143
 20
100.149939
 10
170.750139
 20
100.149939
 10
170.750139
 20
98.899938
 10
168.250139
 20
98.899938
 10
168.250139
 20
95.799935
 10
170.750139
 20
95.799935
 10
170.750139
 20
94.549934
 10
173.250143
 20
94.549934
 10
173.250143
 20
95.799935
 10
175.350144
 20
95.799935
 10
175.350144
 20
92.349932
 10
178.350147
 20
92.349932
 10
178.350147
 20
86.349927
 10
175.350144
 20
86.349927
 10
175.350144
 20
80.349922
 10
178.350147
 20
80.349922
 10
178.350147
 20
74.349917
 10
175.350144
 20
74.349917
 10
175.350144
 20
68.349913
 10
178.350147
 20
68.349913
 10
178.350147
 20
62.349908
 10
175.350144
 20
62.349908
 10
175.350144
 20
56.349903
 10
178.350147
 20
56.349903
 10
178.350147
 20
50.349898
 10
175.350144
 20
50.349898
 10
175.350144
 20
44.349893
 10
178.350147
 20
44.349893
 10
178.350147
 20
38.349888
 10
175.350144
 20
38.349888
 10
175.350144
 20
32.349883
 10
178.350147
 20
32.349883
 10
178.350147
 20
26.349878
 10
175.350144
 20
26.349878
 10
175.350144
 20
22.899875
 10
173.250143
 20
22.899875
 10
173.250143
 20
24.149877
 10
170.750139
 20
24.149877
 10
170.750139
 20
22.899875
 10
168.250139
 20
22.899875
 10
168.250139
 20
19.799873
 10
170.750139
 20
19.799873
 10
170.750139
 20
18.549871
 10
173.250143
 20
18.549871
 10
173.250143
 20
19.799873
 10
175.350144
 20
19.799873
 10
175.350144
 20
16.34987
 10
178.350147
 20
16.34987
 10
178.350147
 20
9.349864
 10
170.35014
 20
9.349864
 10
170.35014
 20
6.349862
 10
168.200137
 20
6.349862
 10
168.200137
 20
10.049865
 10
164.500136
 20
10.049865
 10
164.500136
 20
6.349862
 10
162.350133
 20
6.349862
 10
162.350133
 20
9.349864
 10
156.350129
 20
9.349864
 10
156.350129
 20
6.349862
 10
150.350124
 20
6.349862
 10
150.350124
 20
9.349864
 10
144.350119
 20
9.349864
 10
144.350119
 20
6.349862
 10
138.350114
 20
6.349862
 10
138.350114
 20
9.349864
 10
132.350109
 20
9.349864
 10
132.350109
 20
6.349862
 10
126.350104
 20
6.349862
 10
126.350104
 20
9.349864
 10
120.350099
 20
9.349864
 10
120.350099
 20
6.349862
 10
114.350094
 20
6.349862
 10
114.350094
 20
9.349864
 10
108.350089
 20
9.349864
 10
108.350089
 20
6.349862
 10
106.200087
 20
6.349862
 10
106.200087
 20
10.049865
 10
102.500084
 20
10.049865
 10
102.500084
 20
6.349862
 10
100.350083
 20
6.349862
 10
100.350083
 20
9.349864
 10
92.350076
 20
9.349864
 10
92.350076
 20
16.34987
 10
95.350078
 20
16.34987
 10
95.350078
 20
19.799873
 10
97.45008
 20
19.799873
 10
97.45008
 20
18.549871
 10
99.950082
 20
18.549871
 10
99.950082
 20
19.799873
 10
102.450084
 20
19.799873
 10
102.450084
 20
22.899875
 10
99.950082
 20
22.899875
 10
99.950082
 20
24.149877
 10
97.45008
 20
24.149877
 10
97.45008
 20
22.899875
 10
95.350078
 20
22.899875
 10
95.350078
 20
26.349878
 10
92.350076
 20
26.349878
 10
92.350076
 20
32.349883
 10
95.350078
 20
32.349883
 10
95.350078
 20
38.349888
 10
92.350076
 20
38.349888
 10
92.350076
 20
44.349893
 10
95.350078
 20
44.349893
 10
95.350078
 20
50.349898
 10
92.350076
 20
50.349898
 10
92.350076
 20
56.349903
 10
95.350078
 20
56.349903
 10
95.350078
 20
62.349908
 10
92.350076
 20
62.349908
 10
92.350076
 20
68.349913
 10
95.350078
 20
68.349913
 10
95.350078
 20
74.349917
 10
92.350076
 20
74.349917
 10
92.350076
 20
80.349922
 10
95.350078
 20
80.349922
 10
95.350078
 20
86.349927
 10
92.350076
 20
86.349927
 10
92.350076
 20
92.349932
 10
95.350078
 20
92.349932
 10
95.350078
 20
95.799935
 10
97.45008
 20
95.799935
 10
97.45008
 20
94.549934
 10
99.950082
 20
94.549934
 10
99.950082
 20
95.799935
 10
102.450084
 20
95.799935
 10
102.450084
 20
98.899938
 10
99.950082
 20
98.899938
 10
99.950082
 20
100.149939
 10
97.45008
 20
100.149939
 10
97.45008
 20
98.899938
 10
95.350078
 20
98.899938
 10
95.350078
 20
102.349941
 10
92.350076
 20
102.349941
 10
92.350076
 20
109.349946
  0
CIRCLE
  5
1004D
330
1F
100
AcDbEntity
  8
0
  6
ByBlock
100
AcDbCircle
 10
22.0
 20
96.0
 30
0.0
 40
1.55
  0
CIRCLE
  5
1004E
330
1F
100
AcDbEntity
  8
0
  6
ByBlock
100
AcDbCircle
 10
43.0
 20
96.0
 30
0.0
 40
1.55
  0
CIRCLE
  5
1004F
330
1F
100
AcDbEntity
  8
0
  6
ByBlock
100
AcDbCircle
 10
43.0
 20
52.0
 30
0.0
 40
1.55
  0
CIRCLE
  5
10050
330
1F
100
AcDbEntity
  8
0
  6
ByBlock
100
AcDbCircle
 10
22.0
 20
52.0
 30
0.0
 40
1.55
  0
LINE
  5
10051
330
1F
100
AcDbEntity
  8
0
 62
     7
100
AcDbLine
 10
9.350008
 20
168.349995
 30
0.0
 11
14.350012
 21
168.349995
 31
0.0
  0
LINE
  5
10052
330
1F
100
AcDbEntity
  8
0
 62
     7
100
AcDbLine
 10
14.350012
 20
168.349995
 30
0.0
 11
14.350012
 21
165.349992
 31
0.0
  0
LINE
  5
10053
330
1F
100
AcDbEntity
  8
0
 62
     7
100
AcDbLine
 10
14.350012
 20
165.349992
 30
0.0
 11
16.800014
 21
165.349992
 31
0.0
  0
LINE
  5
10054
330
1F
100
AcDbEntity
  8
0
 62
     7
100
AcDbLine
 10
16.800014
 20
165.349992
 30
0.0
 11
16.800014
 21
163.249991
 31
0.0
  0
LINE
  5
10055
330
1F
100
AcDbEntity
  8
0
 62
     7
100
AcDbLine
 10
16.800014
 20
163.249991
 30
0.0
 11
15.550013
 21
163.249991
 31
0.0
  0
LINE
  5
10056
330
1F
100
AcDbEntity
  8
0
 62
     7
100
AcDbLine
 10
15.550013
 20
163.249991
 30
0.0
 11
15.550013
 21
160.749989
 31
0.0
  0
LINE
  5
10057
330
1F
100
AcDbEntity
  8
0
 62
     7
100
AcDbLine
 10
15.550013
 20
160.749989
 30
0.0
 11
16.800014
 21
160.749989
 31
0.0
  0
LINE
  5
10058
330
1F
100
AcDbEntity
  8
0
 62
     7
100
AcDbLine
 10
16.800014
 20
160.749989
 30
0.0
 11
16.800014
 21
158.249986
 31
0.0
  0
LINE
  5
10059
330
1F
100
AcDbEntity
  8
0
 62
     7
100
AcDbLine
 10
16.800014
 20
158.249986
 30
0.0
 11
19.900017
 21
158.249986
 31
0.0
  0
LINE
  5
1005A
330
1F
100
AcDbEntity
  8
0
 62
     7
100
AcDbLine
 10
19.900017
 20
158.249986
 30
0.0
 11
19.900017
 21
160.749989
 31
0.0
  0
LINE
  5
1005B
330
1F
100
AcDbEntity
  8
0
 62
     7
100
AcDbLine
 10
19.900017
 20
160.749989
 30
0.0
 11
21.150017
 21
160.749989
 31
0.0
  0
LINE
  5
1005C
330
1F
100
AcDbEntity
  8
0
 62
     7
100
AcDbLine
 10
21.150017
 20
160.749989
 30
0.0
 11
21.150017
 21
163.249991
 31
0.0
  0
LINE
  5
1005D
330
1F
100
AcDbEntity
  8
0
 62
     7
100
AcDbLine
 10
21.150017
 20
163.249991
 30
0.0
 11
19.900017
 21
163.249991
 31
0.0
  0
LINE
  5
1005E
330
1F
100
AcDbEntity
  8
0
 62
     7
100
AcDbLine
 10
19.900017
 20
163.249991
 30
0.0
 11
19.900017
 21
165.349992
 31
0.0
  0
LINE
  5
1005F
330
1F
100
AcDbEntity
  8
0
 62
     7
100
AcDbLine
 10
19.900017
 20
165.349992
 30
0.0
 11
22.350018
 21
165.349992
 31
0.0
  0
LINE
  5
10060
330
1F
100
AcDbEntity
  8
0
 62
     7
100
AcDbLine
 10
22.350018
 20
165.349992
 30
0.0
 11
22.350018
 21
168.349995
 31
0.0
  0
LINE
  5
10061
330
1F
100
AcDbEntity
  8
0
 62
     7
100
AcDbLine
 10
22.350018
 20
168.349995
 30
0.0
 11
28.350023
 21
168.349995
 31
0.0
  0
LINE
  5
10062
330
1F
100
AcDbEntity
  8
0
 62
     7
100
AcDbLine
 10
28.350023
 20
168.349995
 30
0.0
 11
28.350023
 21
165.349992
 31
0.0
  0
LINE
  5
10063
330
1F
100
AcDbEntity
  8
0
 62
     7
100
AcDbLine
 10
28.350023
 20
165.349992
 30
0.0
 11
34.350028
 21
165.349992
 31
0.0
  0
LINE
  5
10064
330
1F
100
AcDbEntity
  8
0
 62
     7
100
AcDbLine
 10
34.350028
 20
165.349992
 30
0.0
 11
34.350028
 21
168.349995
 31
0.0
  0
LINE
  5
10065
330
1F
100
AcDbEntity
  8
0
 62
     7
100
AcDbLine
 10
34.350028
 20
168.349995
 30
0.0
 11
40.350033
 21
168.349995
 31
0.0
  0
LINE
  5
10066
330
1F
100
AcDbEntity
  8
0
 62
     7
100
AcDbLine
 10
40.350033
 20
168.349995
 30
0.0
 11
40.350033
 21
165.349992
 31
0.0
  0
LINE
  5
10067
330
1F
100
AcDbEntity
  8
0
 62
     7
100
AcDbLine
 10
40.350033
 20
165.349992
 30
0.0
 11
46.350038
 21
165.349992
 31
0.0
  0
LINE
  5
10068
330
1F
100
AcDbEntity
  8
0
 62
     7
100
AcDbLine
 10
46.350038
 20
165.349992
 30
0.0
 11
46.350038
 21
168.349995
 31
0.0
  0
LINE
  5
10069
330
1F
100
AcDbEntity
  8
0
 62
     7
100
AcDbLine
 10
46.350038
 20
168.349995
 30
0.0
 11
52.350043
 21
168.349995
 31
0.0
  0
LINE
  5
1006A
330
1F
100
AcDbEntity
  8
0
 62
     7
100
AcDbLine
 10
52.350043
 20
168.349995
 30
0.0
 11
52.350043
 21
165.349992
 31
0.0
  0
LINE
  5
1006B
330
1F
100
AcDbEntity
  8
0
 62
     7
100
AcDbLine
 10
52.350043
 20
165.349992
 30
0.0
 11
58.350048
 21
165.349992
 31
0.0
  0
LINE
  5
1006C
330
1F
100
AcDbEntity
  8
0
 62
     7
100
AcDbLine
 10
58.350048
 20
165.349992
 30
0.0
 11
58.350048
 21
168.349995
 31
0.0
  0
LINE
  5
1006D
330
1F
100
AcDbEntity
  8
0
 62
     7
100
AcDbLine
 10
58.350048
 20
168.349995
 30
0.0
 11
64.350053
 21
168.349995
 31
0.0
  0
LINE
  5
1006E
330
1F
100
AcDbEntity
  8
0
 62
     7
100
AcDbLine
 10
64.350053
 20
168.349995
 30
0.0
 11
64.350053
 21
165.349992
 31
0.0
  0
LINE
  5
1006F
330
1F
100
AcDbEntity
  8
0
 62
     7
100
AcDbLine
 10
64.350053
 20
165.349992
 30
0.0
 11
70.350058
 21
165.349992
 31
0.0
  0
LINE
  5
10070
330
1F
100
AcDbEntity
  8
0
 62
     7
100
AcDbLine
 10
70.350058
 20
165.349992
 30
0.0
 11
70.350058
 21
168.349995
 31
0.0
  0
LINE
  5
10071
330
1F
100
AcDbEntity
  8
0
 62
     7
100
AcDbLine
 10
70.350058
 20
168.349995
 30
0.0
 11
76.350063
 21
168.349995
 31
0.0
  0
LINE
  5
10072
330
1F
100
AcDbEntity
  8
0
 62
     7
100
AcDbLine
 10
76.350063
 20
168.349995
 30
0.0
 11
76.350063
 21
165.349992
 31
0.0
  0
LINE
  5
10073
330
1F
100
AcDbEntity
  8
0
 62
     7
100
AcDbLine
 10
76.350063
 20
165.349992
 30
0.0
 11
78.800065
 21
165.349992
 31
0.0
  0
LINE
  5
10074
330
1F
100
AcDbEntity
  8
0
 62
     7
100
AcDbLine
 10
78.800065
 20
165.349992
 30
0.0
 11
78.800065
 21
163.249991
 31
0.0
  0
LINE
  5
10075
330
1F
100
AcDbEntity
  8
0
 62
     7
100
AcDbLine
 10
78.800065
 20
163.249991
 30
0.0
 11
77.550063
 21
163.249991
 31
0.0
  0
LINE
  5
10076
330
1F
100
AcDbEntity
  8
0
 62
     7
100
AcDbLine
 10
77.550063
 20
163.249991
 30
0.0
 11
77.550063
 21
160.749989
 31
0.0
  0
LINE
  5
10077
330
1F
100
AcDbEntity
  8
0
 62
     7
100
AcDbLine
 10
77.550063
 20
160.749989
 30
0.0
 11
78.800065
 21
160.749989
 31
0.0
  0
LINE
  5
10078
330
1F
100
AcDbEntity
  8
0
 62
     7
100
AcDbLine
 10
78.800065
 20
160.749989
 30
0.0
 11
78.800065
 21
158.249986
 31
0.0
  0
LINE
  5
10079
330
1F
100
AcDbEntity
  8
0
 62
     7
100
AcDbLine
 10
78.800065
 20
158.249986
 30
0.0
 11
81.900067
 21
158.249986
 31
0.0
  0
LINE
  5
1007A
330
1F
100
AcDbEntity
  8
0
 62
     7
100
AcDbLine
 10
81.900067
 20
158.249986
 30
0.0
 11
81.900067
 21
160.749989
 31
0.0
  0
LINE
  5
1007B
330
1F
100
AcDbEntity
  8
0
 62
     7
100
AcDbLine
 10
81.900067
 20
160.749989
 30
0.0
 11
83.150069
 21
160.749989
 31
0.0
  0
LINE
  5
1007C
330
1F
100
AcDbEntity
  8
0
 62
     7
100
AcDbLine
 10
83.150069
 20
160.749989
 30
0.0
 11
83.150069
 21
163.249991
 31
0.0
  0
LINE
  5
1007D
330
1F
100
AcDbEntity
  8
0
 62
     7
100
AcDbLine
 10
83.150069
 20
163.249991
 30
0.0
 11
81.900067
 21
163.249991
 31
0.0
  0
LINE
  5
1007E
330
1F
100
AcDbEntity
  8
0
 62
     7
100
AcDbLine
 10
81.900067
 20
163.249991
 30
0.0
 11
81.900067
 21
165.349992
 31
0.0
  0
LINE
  5
1007F
330
1F
100
AcDbEntity
  8
0
 62
     7
100
AcDbLine
 10
81.900067
 20
165.349992
 30
0.0
 11
84.350069
 21
165.349992
 31
0.0
  0
LINE
  5
10080
330
1F
100
AcDbEntity
  8
0
 62
     7
100
AcDbLine
 10
84.350069
 20
165.349992
 30
0.0
 11
84.350069
 21
168.349995
 31
0.0
  0
LINE
  5
10081
330
1F
100
AcDbEntity
  8
0
 62
     7
100
AcDbLine
 10
84.350069
 20
168.349995
 30
0.0
 11
89.350073
 21
168.349995
 31
0.0
  0
LINE
  5
10082
330
1F
100
AcDbEntity
  8
0
 62
     7
100
AcDbLine
 10
89.350073
 20
168.349995
 30
0.0
 11
89.350073
 21
158.849987
 31
0.0
  0
LINE
  5
10083
330
1F
100
AcDbEntity
  8
0
 62
     7
100
AcDbLine
 10
89.350073
 20
158.849987
 30
0.0
 11
92.350076
 21
158.849987
 31
0.0
  0
LINE
  5
10084
330
1F
100
AcDbEntity
  8
0
 62
     7
100
AcDbLine
 10
92.350076
 20
158.849987
 30
0.0
 11
92.350076
 21
155.949985
 31
0.0
  0
LINE
  5
10085
330
1F
100
AcDbEntity
  8
0
 62
     7
100
AcDbLine
 10
92.350076
 20
155.949985
 30
0.0
 11
88.650072
 21
155.949985
 31
0.0
  0
LINE
  5
10086
330
1F
100
AcDbEntity
  8
0
 62
     7
100
AcDbLine
 10
88.650072
 20
155.949985
 30
0.0
 11
88.650072
 21
152.249982
 31
0.0
  0
LINE
  5
10087
330
1F
100
AcDbEntity
  8
0
 62
     7
100
AcDbLine
 10
88.650072
 20
152.249982
 30
0.0
 11
92.350076
 21
152.249982
 31
0.0
  0
LINE
  5
10088
330
1F
100
AcDbEntity
  8
0
 62
     7
100
AcDbLine
 10
92.350076
 20
152.249982
 30
0.0
 11
92.350076
 21
149.349979
 31
0.0
  0
LINE
  5
10089
330
1F
100
AcDbEntity
  8
0
 62
     7
100
AcDbLine
 10
92.350076
 20
149.349979
 30
0.0
 11
89.350073
 21
149.349979
 31
0.0
  0
LINE
  5
1008A
330
1F
100
AcDbEntity
  8
0
 62
     7
100
AcDbLine
 10
89.350073
 20
149.349979
 30
0.0
 11
89.350073
 21
143.349974
 31
0.0
  0
LINE
  5
1008B
330
1F
100
AcDbEntity
  8
0
 62
     7
100
AcDbLine
 10
89.350073
 20
143.349974
 30
0.0
 11
92.350076
 21
143.349974
 31
0.0
  0
LINE
  5
1008C
330
1F
100
AcDbEntity
  8
0
 62
     7
100
AcDbLine
 10
92.350076
 20
143.349974
 30
0.0
 11
92.350076
 21
137.349969
 31
0.0
  0
LINE
  5
1008D
330
1F
100
AcDbEntity
  8
0
 62
     7
100
AcDbLine
 10
92.350076
 20
137.349969
 30
0.0
 11
89.350073
 21
137.349969
 31
0.0
  0
LINE
  5
1008E
330
1F
100
AcDbEntity
  8
0
 62
     7
100
AcDbLine
 10
89.350073
 20
137.349969
 30
0.0
 11
89.350073
 21
131.349964
 31
0.0
  0
LINE
  5
1008F
330
1F
100
AcDbEntity
  8
0
 62
     7
100
AcDbLine
 10
89.350073
 20
131.349964
 30
0.0
 11
92.350076
 21
131.349964
 31
0.0
  0
LINE
  5
10090
330
1F
100
AcDbEntity
  8
0
 62
     7
100
AcDbLine
 10
92.350076
 20
131.349964
 30
0.0
 11
92.350076
 21
128.449962
 31
0.0
  0
LINE
  5
10091
330
1F
100
AcDbEntity
  8
0
 62
     7
100
AcDbLine
 10
92.350076
 20
128.449962
 30
0.0
 11
88.650072
 21
128.449962
 31
0.0
  0
LINE
  5
10092
330
1F
100
AcDbEntity
  8
0
 62
     7
100
AcDbLine
 10
88.650072
 20
128.449962
 30
0.0
 11
88.650072
 21
124.749958
 31
0.0
  0
LINE
  5
10093
330
1F
100
AcDbEntity
  8
0
 62
     7
100
AcDbLine
 10
88.650072
 20
124.749958
 30
0.0
 11
92.350076
 21
124.749958
 31
0.0
  0
LINE
  5
10094
330
1F
100
AcDbEntity
  8
0
 62
     7
100
AcDbLine
 10
92.350076
 20
124.749958
 30
0.0
 11
92.350076
 21
121.849958
 31
0.0
  0
LINE
  5
10095
330
1F
100
AcDbEntity
  8
0
 62
     7
100
AcDbLine
 10
92.350076
 20
121.849958
 30
0.0
 11
89.350073
 21
121.849958
 31
0.0
  0
LINE
  5
10096
330
1F
100
AcDbEntity
  8
0
 62
     7
100
AcDbLine
 10
89.350073
 20
121.849958
 30
0.0
 11
89.350073
 21
112.349949
 31
0.0
  0
LINE
  5
10097
330
1F
100
AcDbEntity
  8
0
 62
     7
100
AcDbLine
 10
89.350073
 20
112.349949
 30
0.0
 11
84.350069
 21
112.349949
 31
0.0
  0
LINE
  5
10098
330
1F
100
AcDbEntity
  8
0
 62
     7
100
AcDbLine
 10
84.350069
 20
112.349949
 30
0.0
 11
84.350069
 21
115.349951
 31
0.0
  0
LINE
  5
10099
330
1F
100
AcDbEntity
  8
0
 62
     7
100
AcDbLine
 10
84.350069
 20
115.349951
 30
0.0
 11
81.900067
 21
115.349951
 31
0.0
  0
LINE
  5
1009A
330
1F
100
AcDbEntity
  8
0
 62
     7
100
AcDbLine
 10
81.900067
 20
115.349951
 30
0.0
 11
81.900067
 21
117.449953
 31
0.0
  0
LINE
  5
1009B
330
1F
100
AcDbEntity
  8
0
 62
     7
100
AcDbLine
 10
81.900067
 20
117.449953
 30
0.0
 11
83.150069
 21
117.449953
 31
0.0
  0
LINE
  5
1009C
330
1F
100
AcDbEntity
  8
0
 62
     7
100
AcDbLine
 10
83.150069
 20
117.449953
 30
0.0
 11
83.150069
 21
119.949956
 31
0.0
  0
LINE
  5
1009D
330
1F
100
AcDbEntity
  8
0
 62
     7
100
AcDbLine
 10
83.150069
 20
119.949956
 30
0.0
 11
81.900067
 21
119.949956
 31
0.0
  0
LINE
  5
1009E
330
1F
100
AcDbEntity
  8
0
 62
     7
100
AcDbLine
 10
81.900067
 20
119.949956
 30
0.0
 11
81.900067
 21
122.449957
 31
0.0
  0
LINE
  5
1009F
330
1F
100
AcDbEntity
  8
0
 62
     7
100
AcDbLine
 10
81.900067
 20
122.449957
 30
0.0
 11
78.800065
 21
122.449957
 31
0.0
  0
LINE
  5
100A0
330
1F
100
AcDbEntity
  8
0
 62
     7
100
AcDbLine
 10
78.800065
 20
122.449957
 30
0.0
 11
78.800065
 21
119.949956
 31
0.0
  0
LINE
  5
100A1
330
1F
100
AcDbEntity
  8
0
 62
     7
100
AcDbLine
 10
78.800065
 20
119.949956
 30
0.0
 11
77.550063
 21
119.949956
 31
0.0
  0
LINE
  5
100A2
330
1F
100
AcDbEntity
  8
0
 62
     7
100
AcDbLine
 10
77.550063
 20
119.949956
 30
0.0
 11
77.550063
 21
117.449953
 31
0.0
  0
LINE
  5
100A3
330
1F
100
AcDbEntity
  8
0
 62
     7
100
AcDbLine
 10
77.550063
 20
117.449953
 30
0.0
 11
78.800065
 21
117.449953
 31
0.0
  0
LINE
  5
100A4
330
1F
100
AcDbEntity
  8
0
 62
     7
100
AcDbLine
 10
78.800065
 20
117.449953
 30
0.0
 11
78.800065
 21
115.349951
 31
0.0
  0
LINE
  5
100A5
330
1F
100
AcDbEntity
  8
0
 62
     7
100
AcDbLine
 10
78.800065
 20
115.349951
 30
0.0
 11
76.350063
 21
115.349951
 31
0.0
  0
LINE
  5
100A6
330
1F
100
AcDbEntity
  8
0
 62
     7
100
AcDbLine
 10
76.350063
 20
115.349951
 30
0.0
 11
76.350063
 21
112.349949
 31
0.0
  0
LINE
  5
100A7
330
1F
100
AcDbEntity
  8
0
 62
     7
100
AcDbLine
 10
76.350063
 20
112.349949
 30
0.0
 11
70.350058
 21
112.349949
 31
0.0
  0
LINE
  5
100A8
330
1F
100
AcDbEntity
  8
0
 62
     7
100
AcDbLine
 10
70.350058
 20
112.349949
 30
0.0
 11
70.350058
 21
115.349951
 31
0.0
  0
LINE
  5
100A9
330
1F
100
AcDbEntity
  8
0
 62
     7
100
AcDbLine
 10
70.350058
 20
115.349951
 30
0.0
 11
64.350053
 21
115.349951
 31
0.0
  0
LINE
  5
100AA
330
1F
100
AcDbEntity
  8
0
 62
     7
100
AcDbLine
 10
64.350053
 20
115.349951
 30
0.0
 11
64.350053
 21
112.349949
 31
0.0
  0
LINE
  5
100AB
330
1F
100
AcDbEntity
  8
0
 62
     7
100
AcDbLine
 10
64.350053
 20
112.349949
 30
0.0
 11
58.350048
 21
112.349949
 31
0.0
  0
LINE
  5
100AC
330
1F
100
AcDbEntity
  8
0
 62
     7
100
AcDbLine
 10
58.350048
 20
112.349949
 30
0.0
 11
58.350048
 21
115.349951
 31
0.0
  0
LINE
  5
100AD
330
1F
100
AcDbEntity
  8
0
 62
     7
100
AcDbLine
 10
58.350048
 20
115.349951
 30
0.0
 11
52.350043
 21
115.349951
 31
0.0
  0
LINE
  5
100AE
330
1F
100
AcDbEntity
  8
0
 62
     7
100
AcDbLine
 10
52.350043
 20
115.349951
 30
0.0
 11
52.350043
 21
112.349949
 31
0.0
  0
LINE
  5
100AF
330
1F
100
AcDbEntity
  8
0
 62
     7
100
AcDbLine
 10
52.350043
 20
112.349949
 30
0.0
 11
46.350038
 21
112.349949
 31
0.0
  0
LINE
  5
100B0
330
1F
100
AcDbEntity
  8
0
 62
     7
100
AcDbLine
 10
46.350038
 20
112.349949
 30
0.0
 11
46.350038
 21
115.349951
 31
0.0
  0
LINE
  5
100B1
330
1F
100
AcDbEntity
  8
0
 62
     7
100
AcDbLine
 10
46.350038
 20
115.349951
 30
0.0
 11
40.350033
 21
115.349951
 31
0.0
  0
LINE
  5
100B2
330
1F
100
AcDbEntity
  8
0
 62
     7
100
AcDbLine
 10
40.350033
 20
115.349951
 30
0.0
 11
40.350033
 21
112.349949
 31
0.0
  0
LINE
  5
100B3
330
1F
100
AcDbEntity
  8
0
 62
     7
100
AcDbLine
 10
40.350033
 20
112.349949
 30
0.0
 11
34.350028
 21
112.349949
 31
0.0
  0
LINE
  5
100B4
330
1F
100
AcDbEntity
  8
0
 62
     7
100
AcDbLine
 10
34.350028
 20
112.349949
 30
0.0
 11
34.350028
 21
122.8590533303928
 31
0.0
  0
LINE
  5
100B5
330
1F
100
AcDbEntity
  8
0
 62
     7
100
AcDbLine
 10
31.350028
 20
125.8590533303928
 30
0.0
 11
31.350023
 21
125.8590533303928
 31
0.0
  0
LINE
  5
100B6
330
1F
100
AcDbEntity
  8
0
 62
     7
100
AcDbLine
 10
28.350023
 20
122.8590533303928
 30
0.0
 11
28.350023
 21
112.349949
 31
0.0
  0
LINE
  5
100B7
330
1F
100
AcDbEntity
  8
0
 62
     7
100
AcDbLine
 10
28.350023
 20
112.349949
 30
0.0
 11
22.350018
 21
112.349949
 31
0.0
  0
LINE
  5
100B8
330
1F
100
AcDbEntity
  8
0
 62
     7
100
AcDbLine
 10
22.350018
 20
112.349949
 30
0.0
 11
22.350018
 21
115.349951
 31
0.0
  0
LINE
  5
100B9
330
1F
100
AcDbEntity
  8
0
 62
     7
100
AcDbLine
 10
22.350018
 20
115.349951
 30
0.0
 11
19.900017
 21
115.349951
 31
0.0
  0
LINE
  5
100BA
330
1F
100
AcDbEntity
  8
0
 62
     7
100
AcDbLine
 10
19.900017
 20
115.349951
 30
0.0
 11
19.900017
 21
117.449953
 31
0.0
  0
LINE
  5
100BB
330
1F
100
AcDbEntity
  8
0
 62
     7
100
AcDbLine
 10
19.900017
 20
117.449953
 30
0.0
 11
21.150017
 21
117.449953
 31
0.0
  0
LINE
  5
100BC
330
1F
100
AcDbEntity
  8
0
 62
     7
100
AcDbLine
 10
21.150017
 20
117.449953
 30
0.0
 11
21.150017
 21
119.949956
 31
0.0
  0
LINE
  5
100BD
330
1F
100
AcDbEntity
  8
0
 62
     7
100
AcDbLine
 10
21.150017
 20
119.949956
 30
0.0
 11
19.900017
 21
119.949956
 31
0.0
  0
LINE
  5
100BE
330
1F
100
AcDbEntity
  8
0
 62
     7
100
AcDbLine
 10
19.900017
 20
119.949956
 30
0.0
 11
19.900017
 21
122.449957
 31
0.0
  0
LINE
  5
100BF
330
1F
100
AcDbEntity
  8
0
 62
     7
100
AcDbLine
 10
19.900017
 20
122.449957
 30
0.0
 11
16.800014
 21
122.449957
 31
0.0
  0
LINE
  5
100C0
330
1F
100
AcDbEntity
  8
0
 62
     7
100
AcDbLine
 10
16.800014
 20
122.449957
 30
0.0
 11
16.800014
 21
119.949956
 31
0.0
  0
LINE
  5
100C1
330
1F
100
AcDbEntity
  8
0
 62
     7
100
AcDbLine
 10
16.800014
 20
119.949956
 30
0.0
 11
15.550013
 21
119.949956
 31
0.0
  0
LINE
  5
100C2
330
1F
100
AcDbEntity
  8
0
 62
     7
100
AcDbLine
 10
15.550013
 20
119.949956
 30
0.0
 11
15.550013
 21
117.449953
 31
0.0
  0
LINE
  5
100C3
330
1F
100
AcDbEntity
  8
0
 62
     7
100
AcDbLine
 10
15.550013
 20
117.449953
 30
0.0
 11
16.800014
 21
117.449953
 31
0.0
  0
LINE
  5
100C4
330
1F
100
AcDbEntity
  8
0
 62
     7
100
AcDbLine
 10
16.800014
 20
117.449953
 30
0.0
 11
16.800014
 21
115.349951
 31
0.0
  0
LINE
  5
100C5
330
1F
100
AcDbEntity
  8
0
 62
     7
100
AcDbLine
 10
16.800014
 20
115.349951
 30
0.0
 11
14.350012
 21
115.349951
 31
0.0
  0
LINE
  5
100C6
330
1F
100
AcDbEntity
  8
0
 62
     7
100
AcDbLine
 10
14.350012
 20
115.349951
 30
0.0
 11
14.350012
 21
112.349949
 31
0.0
  0
LINE
  5
100C7
330
1F
100
AcDbEntity
  8
0
 62
     7
100
AcDbLine
 10
14.350012
 20
112.349949
 30
0.0
 11
9.350008
 21
112.349949
 31
0.0
  0
LINE
  5
100C8
330
1F
100
AcDbEntity
  8
0
 62
     7
100
AcDbLine
 10
9.350008
 20
112.349949
 30
0.0
 11
9.350008
 21
121.849958
 31
0.0
  0
LINE
  5
100C9
330
1F
100
AcDbEntity
  8
0
 62
     7
100
AcDbLine
 10
9.350008
 20
121.849958
 30
0.0
 11
6.350005
 21
121.849958
 31
0.0
  0
LINE
  5
100CA
330
1F
100
AcDbEntity
  8
0
 62
     7
100
AcDbLine
 10
6.350005
 20
121.849958
 30
0.0
 11
6.350005
 21
124.749958
 31
0.0
  0
LINE
  5
100CB
330
1F
100
AcDbEntity
  8
0
 62
     7
100
AcDbLine
 10
6.350005
 20
124.749958
 30
0.0
 11
10.050008
 21
124.749958
 31
0.0
  0
LINE
  5
100CC
330
1F
100
AcDbEntity
  8
0
 62
     7
100
AcDbLine
 10
10.050008
 20
124.749958
 30
0.0
 11
10.050008
 21
128.449962
 31
0.0
  0
LINE
  5
100CD
330
1F
100
AcDbEntity
  8
0
 62
     7
100
AcDbLine
 10
10.050008
 20
128.449962
 30
0.0
 11
6.350005
 21
128.449962
 31
0.0
  0
LINE
  5
100CE
330
1F
100
AcDbEntity
  8
0
 62
     7
100
AcDbLine
 10
6.350005
 20
128.449962
 30
0.0
 11
6.350005
 21
131.349964
 31
0.0
  0
LINE
  5
100CF
330
1F
100
AcDbEntity
  8
0
 62
     7
100
AcDbLine
 10
6.350005
 20
131.349964
 30
0.0
 11
9.350008
 21
131.349964
 31
0.0
  0
LINE
  5
100D0
330
1F
100
AcDbEntity
  8
0
 62
     7
100
AcDbLine
 10
9.350008
 20
131.349964
 30
0.0
 11
9.350008
 21
137.349969
 31
0.0
  0
LINE
  5
100D1
330
1F
100
AcDbEntity
  8
0
 62
     7
100
AcDbLine
 10
9.350008
 20
137.349969
 30
0.0
 11
6.350005
 21
137.349969
 31
0.0
  0
LINE
  5
100D2
330
1F
100
AcDbEntity
  8
0
 62
     7
100
AcDbLine
 10
6.350005
 20
137.349969
 30
0.0
 11
6.350005
 21
143.349974
 31
0.0
  0
LINE
  5
100D3
330
1F
100
AcDbEntity
  8
0
 62
     7
100
AcDbLine
 10
6.350005
 20
143.349974
 30
0.0
 11
9.350008
 21
143.349974
 31
0.0
  0
LINE
  5
100D4
330
1F
100
AcDbEntity
  8
0
 62
     7
100
AcDbLine
 10
9.350008
 20
143.349974
 30
0.0
 11
9.350008
 21
149.349979
 31
0.0
  0
LINE
  5
100D5
330
1F
100
AcDbEntity
  8
0
 62
     7
100
AcDbLine
 10
9.350008
 20
149.349979
 30
0.0
 11
6.350005
 21
149.349979
 31
0.0
  0
LINE
  5
100D6
330
1F
100
AcDbEntity
  8
0
 62
     7
100
AcDbLine
 10
6.350005
 20
149.349979
 30
0.0
 11
6.350005
 21
152.249982
 31
0.0
  0
LINE
  5
100D7
330
1F
100
AcDbEntity
  8
0
 62
     7
100
AcDbLine
 10
6.350005
 20
152.249982
 30
0.0
 11
10.050008
 21
152.249982
 31
0.0
  0
LINE
  5
100D8
330
1F
100
AcDbEntity
  8
0
 62
     7
100
AcDbLine
 10
10.050008
 20
152.249982
 30
0.0
 11
10.050008
 21
155.949985
 31
0.0
  0
LINE
  5
100D9
330
1F
100
AcDbEntity
  8
0
 62
     7
100
AcDbLine
 10
10.050008
 20
155.949985
 30
0.0
 11
6.350005
 21
155.949985
 31
0.0
  0
LINE
  5
100DA
330
1F
100
AcDbEntity
  8
0
 62
     7
100
AcDbLine
 10
6.350005
 20
155.949985
 30
0.0
 11
6.350005
 21
158.849987
 31
0.0
  0
LINE
  5
100DB
330
1F
100
AcDbEntity
  8
0
 62
     7
100
AcDbLine
 10
6.350005
 20
158.849987
 30
0.0
 11
9.350008
 21
158.849987
 31
0.0
  0
LINE
  5
100DC
330
1F
100
AcDbEntity
  8
0
 62
     7
100
AcDbLine
 10
9.350008
 20
158.849987
 30
0.0
 11
9.350008
 21
168.349995
 31
0.0
  0
LINE
  5
100DD
330
1F
100
AcDbEntity
  8
0
 62
     7
100
AcDbLine
 10
9.350008
 20
168.349995
 30
0.0
 11
9.350008
 21
168.349995
 31
0.0
  0
CIRCLE
  5
100DE
330
1F
100
AcDbEntity
  8
0
  6
ByBlock
100
AcDbCircle
 10
122.4146417550542
 20
82.91040930240145
 30
0.0
 40
6.0
  0
ARC
  5
100E4
330
1F
100
AcDbEntity
  8
0
 62
     7
100
AcDbCircle
 10
31.350023
 20
122.8590533303928
 30
0.0
 40
3.000000000000001
100
AcDbArc
 50
90.0
 51
180.0
  0
ARC
  5
100E5
330
1F
100
AcDbEntity
  8
0
 62
     7
100
AcDbCircle
 10
31.350028
 20
122.8590533303928
 30
0.0
 40
3.000000000000001
100
AcDbArc
 50
0.0
 51
90.0
  0
ENDSEC
  0
SECTION
  2
OBJECTS
  0
DICTIONARY
  5
C
330
0
100
AcDbDictionary
281
     1
  3
ACAD_DETAILVIEWSTYLE
350
1004B
  3
ACAD_GROUP
350
D
  3
ACAD_IMAGE_VARS
350
10045
  3
ACAD_LAYOUT
350
10021
  3
ACAD_MATERIAL
350
1003D
  3
ACAD_MLEADERSTYLE
350
10049
  3
ACAD_MLINESTYLE
350
17
  3
ACAD_SCALELIST
350
FFFF
  3
ACAD_SECTIONVIEWSTYLE
350
1004C
  3
ACAD_TABLESTYLE
350
10041
  3
ACAD_VISUALSTYLE
350
10024
  3
ACDB_RECOMPOSE_DATA
350
100EB
  3
AcDbVariableDictionary
350
10046
  3
APPDATA
350
10043
  0
SUN
  5
10044
330
2E
100
AcDbSun
 90
        1
290
     0
 63
     7
421
 16777215
 40
1.0
291
     1
 91
  2455826
 92
 54000000
292
     0
 70
     2
 71
   256
280
     1
  0
DICTIONARY
  5
1004B
102
{ACAD_REACTORS
330
C
102
}
330
C
100
AcDbDictionary
281
     1
  0
DICTIONARY
  5
D
330
C
100
AcDbDictionary
281
     1
  0
RASTERVARIABLES
  5
10045
102
{ACAD_REACTORS
330
C
102
}
330
C
100
AcDbRasterVariables
 90
        0
 70
     1
 71
     1
 72
     0
  0
DICTIONARY
  5
10021
102
{ACAD_REACTORS
330
C
102
}
330
C
100
AcDbDictionary
281
     1
  3
Feuille 1
350
10023
  3
Model
350
10022
  0
DICTIONARY
  5
1003D
102
{ACAD_REACTORS
330
C
102
}
330
C
100
AcDbDictionary
281
     1
  3
ByBlock
350
1003F
  3
ByLayer
350
1003E
  3
Global
350
10040
  0
DICTIONARY
  5
10049
102
{ACAD_REACTORS
330
C
102
}
330
C
100
AcDbDictionary
281
     1
  0
DICTIONARY
  5
17
330
C
100
AcDbDictionary
281
     1
  0
DICTIONARY
  5
FFFF
102
{ACAD_REACTORS
330
C
102
}
330
C
100
AcDbDictionary
281
     1
  3
A0
350
10000
  3
A1
350
10001
  3
A2
350
10002
  3
A3
350
10003
  3
A4
350
10004
  3
A5
350
10005
  3
A6
350
10006
  3
A7
350
10007
  3
A8
350
10008
  3
A9
350
10009
  3
B0
350
1000A
  3
B1
350
1000B
  3
B2
350
1000C
  3
B3
350
1000D
  3
B4
350
1000E
  3
B5
350
1000F
  3
B6
350
10010
  3
B7
350
10011
  3
B8
350
10012
  3
B9
350
10013
  3
C0
350
10014
  3
C1
350
10015
  3
C2
350
10016
  3
C3
350
10017
  3
C4
350
10018
  3
C5
350
10019
  3
C6
350
1001A
  3
C7
350
1001B
  3
C8
350
1001C
  3
C9
350
1001D
  3
D0
350
1001E
  3
D1
350
1001F
  3
D2
350
10020
  0
DICTIONARY
  5
1004C
102
{ACAD_REACTORS
330
C
102
}
330
C
100
AcDbDictionary
281
     1
  0
DICTIONARY
  5
10041
102
{ACAD_REACTORS
330
C
102
}
330
C
100
AcDbDictionary
281
     1
  3
Standard
350
10042
  0
DICTIONARY
  5
10024
102
{ACAD_REACTORS
330
C
102
}
330
C
100
AcDbDictionary
281
     1
  3
2dWireframe
350
10029
  3
Basic
350
1002C
  3
Brighten
350
10030
  3
ColorChange
350
10034
  3
Conceptual
350
1002E
  3
Dim
350
1002F
  3
EdgeColorOff
350
10037
  3
Facepattern
350
10033
  3
Flat
350
10025
  3
FlatWithEdges
350
10026
  3
Gouraud
350
10027
  3
GouraudWithEdges
350
10028
  3
Hidden
350
1002B
  3
JitterOff
350
10035
  3
Linepattern
350
10032
  3
OverhangOff
350
10036
  3
Realistic
350
1002D
  3
Shaded
350
1003C
  3
Shaded with edges
350
1003B
  3
Shades of Gray
350
10038
  3
Sketchy
350
10039
  3
Thicken
350
10031
  3
Wireframe
350
1002A
  3
X-Ray
350
1003A
  0
XRECORD
  5
100EB
102
{ACAD_REACTORS
330
C
102
}
330
C
100
AcDbXrecord
280
     1
 90
        1
330
10042
  0
DICTIONARY
  5
10046
102
{ACAD_REACTORS
330
C
102
}
330
C
100
AcDbDictionary
281
     1
  3
CANNOSCALE
350
10047
  3
CTABLESTYLE
350
10048
  3
MSLTSCALE
350
1004A
  0
DICTIONARY
  5
10043
102
{ACAD_REACTORS
330
C
102
}
330
C
100
AcDbDictionary
281
     1
  0
LAYOUT
  5
10023
102
{ACAD_REACTORS
330
10021
102
}
330
10021
100
AcDbPlotSettings
  1

  2
none_device
  4

  6

 40
0.0
 41
0.0
 42
0.0
 43
0.0
 44
0.0
 45
0.0
 46
0.0
 47
0.0
 48
0.0
 49
0.0
140
0.0
141
0.0
142
1.0
143
1.0
 70
   688
 72
     1
 73
     0
 74
     5
  7

 75
    16
 76
     0
 77
     2
 78
   300
147
1.0
148
0.0
149
0.0
100
AcDbLayout
  1
Feuille 1
 70
     1
 71
     1
 10
0.0
 20
0.0
 11
0.0
 21
0.0
 12
0.0
 22
0.0
 32
0.0
 14
1.000000000000000E+20
 24
1.000000000000000E+20
 34
1.000000000000000E+20
 15
-1.000000000000000E+20
 25
-1.000000000000000E+20
 35
-1.000000000000000E+20
146
0.0
 13
0.0
 23
0.0
 33
0.0
 16
1.0
 26
0.0
 36
0.0
 17
0.0
 27
1.0
 37
0.0
 76
     0
330
1B
  0
LAYOUT
  5
10022
102
{ACAD_REACTORS
330
10021
102
}
330
10021
100
AcDbPlotSettings
  1

  2
none_device
  4
Letter_(8.50_x_11.00_Inches)
  6

 40
6.35
 41
6.35
 42
6.35
 43
6.35
 44
215.9
 45
279.4
 46
0.0
 47
0.0
 48
0.0
 49
0.0
140
0.0
141
0.0
142
1.0
143
52.855
 70
  1712
 72
     0
 73
     0
 74
     0
  7

 75
     0
 76
     0
 77
     2
 78
   300
147
0.0189196859332135
148
36.06799999999968
149
558.8
100
AcDbLayout
  1
Model
 70
     1
 71
     0
 10
0.0
 20
0.0
 11
12.0
 21
9.0
 12
0.0
 22
0.0
 32
0.0
 14
6.350004999999999
 24
6.349862
 34
0.0
 15
284.350234
 25
168.349995
 35
0.0
146
0.0
 13
0.0
 23
0.0
 33
0.0
 16
1.0
 26
0.0
 36
0.0
 17
0.0
 27
1.0
 37
0.0
 76
     0
330
1F
331
2E
  0
MATERIAL
  5
1003F
102
{ACAD_REACTORS
330
1003D
102
}
330
1003D
100
AcDbMaterial
  1
ByBlock
 72
     1
 94
      127
  0
MATERIAL
  5
1003E
102
{ACAD_REACTORS
330
1003D
102
}
330
1003D
100
AcDbMaterial
  1
ByLayer
 72
     1
 94
      127
  0
MATERIAL
  5
10040
102
{ACAD_REACTORS
330
1003D
102
}
330
1003D
100
AcDbMaterial
  1
Global
 72
     1
 94
      127
  0
SCALE
  5
10000
102
{ACAD_REACTORS
330
FFFF
102
}
330
FFFF
100
AcDbScale
 70
     0
300
1:1
140
1.0
141
1.0
290
     1
  0
SCALE
  5
10001
102
{ACAD_REACTORS
330
FFFF
102
}
330
FFFF
100
AcDbScale
 70
     0
300
1:2
140
1.0
141
2.0
290
     0
  0
SCALE
  5
10002
102
{ACAD_REACTORS
330
FFFF
102
}
330
FFFF
100
AcDbScale
 70
     0
300
1:4
140
1.0
141
4.0
290
     0
  0
SCALE
  5
10003
102
{ACAD_REACTORS
330
FFFF
102
}
330
FFFF
100
AcDbScale
 70
     0
300
1:5
140
1.0
141
5.0
290
     0
  0
SCALE
  5
10004
102
{ACAD_REACTORS
330
FFFF
102
}
330
FFFF
100
AcDbScale
 70
     0
300
1:8
140
1.0
141
8.0
290
     0
  0
SCALE
  5
10005
102
{ACAD_REACTORS
330
FFFF
102
}
330
FFFF
100
AcDbScale
 70
     0
300
1:10
140
1.0
141
10.0
290
     0
  0
SCALE
  5
10006
102
{ACAD_REACTORS
330
FFFF
102
}
330
FFFF
100
AcDbScale
 70
     0
300
1:16
140
1.0
141
16.0
290
     0
  0
SCALE
  5
10007
102
{ACAD_REACTORS
330
FFFF
102
}
330
FFFF
100
AcDbScale
 70
     0
300
1:20
140
1.0
141
20.0
290
     0
  0
SCALE
  5
10008
102
{ACAD_REACTORS
330
FFFF
102
}
330
FFFF
100
AcDbScale
 70
     0
300
1:30
140
1.0
141
30.0
290
     0
  0
SCALE
  5
10009
102
{ACAD_REACTORS
330
FFFF
102
}
330
FFFF
100
AcDbScale
 70
     0
300
1:40
140
1.0
141
40.0
290
     0
  0
SCALE
  5
1000A
102
{ACAD_REACTORS
330
FFFF
102
}
330
FFFF
100
AcDbScale
 70
     0
300
1:50
140
1.0
141
50.0
290
     0
  0
SCALE
  5
1000B
102
{ACAD_REACTORS
330
FFFF
102
}
330
FFFF
100
AcDbScale
 70
     0
300
1:100
140
1.0
141
100.0
290
     0
  0
SCALE
  5
1000C
102
{ACAD_REACTORS
330
FFFF
102
}
330
FFFF
100
AcDbScale
 70
     0
300
2:1
140
2.0
141
1.0
290
     0
  0
SCALE
  5
1000D
102
{ACAD_REACTORS
330
FFFF
102
}
330
FFFF
100
AcDbScale
 70
     0
300
4:1
140
4.0
141
1.0
290
     0
  0
SCALE
  5
1000E
102
{ACAD_REACTORS
330
FFFF
102
}
330
FFFF
100
AcDbScale
 70
     0
300
8:1
140
8.0
141
1.0
290
     0
  0
SCALE
  5
1000F
102
{ACAD_REACTORS
330
FFFF
102
}
330
FFFF
100
AcDbScale
 70
     0
300
10:1
140
10.0
141
1.0
290
     0
  0
SCALE
  5
10010
102
{ACAD_REACTORS
330
FFFF
102
}
330
FFFF
100
AcDbScale
 70
     0
300
100:1
140
100.0
141
1.0
290
     0
  0
SCALE
  5
10011
102
{ACAD_REACTORS
330
FFFF
102
}
330
FFFF
100
AcDbScale
 70
     0
300
1/128" = 1'-0"
140
0.0078125
141
12.0
290
     0
  0
SCALE
  5
10012
102
{ACAD_REACTORS
330
FFFF
102
}
330
FFFF
100
AcDbScale
 70
     0
300
1/64" = 1'-0"
140
0.015625
141
12.0
290
     0
  0
SCALE
  5
10013
102
{ACAD_REACTORS
330
FFFF
102
}
330
FFFF
100
AcDbScale
 70
     0
300
1/32" = 1'-0"
140
0.03125
141
12.0
290
     0
  0
SCALE
  5
10014
102
{ACAD_REACTORS
330
FFFF
102
}
330
FFFF
100
AcDbScale
 70
     0
300
1/16" = 1'-0"
140
0.0625
141
12.0
290
     0
  0
SCALE
  5
10015
102
{ACAD_REACTORS
330
FFFF
102
}
330
FFFF
100
AcDbScale
 70
     0
300
3/32" = 1'-0"
140
0.09375
141
12.0
290
     0
  0
SCALE
  5
10016
102
{ACAD_REACTORS
330
FFFF
102
}
330
FFFF
100
AcDbScale
 70
     0
300
1/8" = 1'-0"
140
0.125
141
12.0
290
     0
  0
SCALE
  5
10017
102
{ACAD_REACTORS
330
FFFF
102
}
330
FFFF
100
AcDbScale
 70
     0
300
3/16" = 1'-0"
140
0.1875
141
12.0
290
     0
  0
SCALE
  5
10018
102
{ACAD_REACTORS
330
FFFF
102
}
330
FFFF
100
AcDbScale
 70
     0
300
1/4" = 1'-0"
140
0.25
141
12.0
290
     0
  0
SCALE
  5
10019
102
{ACAD_REACTORS
330
FFFF
102
}
330
FFFF
100
AcDbScale
 70
     0
300
3/8" = 1'-0"
140
0.375
141
12.0
290
     0
  0
SCALE
  5
1001A
102
{ACAD_REACTORS
330
FFFF
102
}
330
FFFF
100
AcDbScale
 70
     0
300
1/2" = 1'-0"
140
0.5
141
12.0
290
     0
  0
SCALE
  5
1001B
102
{ACAD_REACTORS
330
FFFF
102
}
330
FFFF
100
AcDbScale
 70
     0
300
3/4" = 1'-0"
140
0.75
141
12.0
290
     0
  0
SCALE
  5
1001C
102
{ACAD_REACTORS
330
FFFF
102
}
330
FFFF
100
AcDbScale
 70
     0
300
1" = 1'-0"
140
1.0
141
12.0
290
     0
  0
SCALE
  5
1001D
102
{ACAD_REACTORS
330
FFFF
102
}
330
FFFF
100
AcDbScale
 70
     0
300
1-1/2" = 1'-0"
140
1.5
141
12.0
290
     0
  0
SCALE
  5
1001E
102
{ACAD_REACTORS
330
FFFF
102
}
330
FFFF
100
AcDbScale
 70
     0
300
3" = 1'-0"
140
3.0
141
12.0
290
     0
  0
SCALE
  5
1001F
102
{ACAD_REACTORS
330
FFFF
102
}
330
FFFF
100
AcDbScale
 70
     0
300
6" = 1'-0"
140
6.0
141
12.0
290
     0
  0
SCALE
  5
10020
102
{ACAD_REACTORS
330
FFFF
102
}
330
FFFF
100
AcDbScale
 70
     0
300
1'-0" = 1'-0"
140
12.0
141
12.0
290
     0
  0
TABLESTYLE
  5
10042
102
{ACAD_REACTORS
330
10041
102
}
102
{ACAD_XDICTIONARY
360
100E9
102
}
330
10041
100
AcDbTableStyle
  3
Standard
 70
     0
 71
     0
 40
0.06
 41
0.06
280
     0
281
     0
  7
STANDARD
140
4.5
170
     2
 62
     0
 63
   257
283
     0
 90
        4
 91
        0
  1

274
    -2
284
     1
 64
     0
275
    -2
285
     1
 65
     0
276
    -2
286
     1
 66
     0
277
    -2
287
     1
 67
     0
278
    -2
288
     1
 68
     0
279
    -2
289
     1
 69
     0
  7
STANDARD
140
6.0
170
     5
 62
     0
 63
   257
283
     0
 90
        4
 91
        0
  1

274
    -2
284
     1
 64
     0
275
    -2
285
     1
 65
     0
276
    -2
286
     1
 66
     0
277
    -2
287
     1
 67
     0
278
    -2
288
     1
 68
     0
279
    -2
289
     1
 69
     0
  7
STANDARD
140
4.5
170
     5
 62
     0
 63
   257
283
     0
 90
        4
 91
        0
  1

274
    -2
284
     1
 64
     0
275
    -2
285
     1
 65
     0
276
    -2
286
     1
 66
     0
277
    -2
287
     1
 67
     0
278
    -2
288
     1
 68
     0
279
    -2
289
     1
 69
     0
  0
VISUALSTYLE
  5
10029
102
{ACAD_REACTORS
330
10024
102
}
330
10024
100
AcDbVisualStyle
  2
2dWireframe
 70
     4
177
     3
291
     0
 70
    58
 90
        0
176
     1
 90
        2
176
     1
 90
        0
176
     1
 90
        0
176
     1
 40
0.6
176
     1
 40
30.0
176
     1
 62
     7
420
 16777215
176
     1
 90
        1
176
     1
 90
        4
176
     1
 62
     7
176
     1
 62
   257
176
     1
 90
        1
176
     1
 90
        1
176
     1
 40
1.0
176
     1
 90
        0
176
     1
 62
   257
176
     1
 40
1.0
176
     1
 90
        1
176
     1
 90
        6
176
     1
 90
        2
176
     1
 62
     7
176
     1
 90
        5
176
     1
 90
        0
176
     1
 90
        0
176
     1
290
     0
176
     1
 90
        1
176
     1
 40
0.0
176
     1
 90
        0
176
     1
290
     1
176
     1
290
     1
176
     1
290
     0
176
     1
290
     0
176
     1
290
     0
176
     1
290
     0
176
     1
290
     0
176
     1
290
     0
176
     1
290
     0
176
     1
 90
       50
176
     1
 40
0.0
176
     1
 40
1.0
176
     1
 90
        0
176
     1
 62
    18
420
        0
176
     1
 90
       50
176
     1
 90
        3
176
     1
 62
     5
420
      255
176
     1
290
     0
176
     1
 90
       50
176
     1
 90
       50
176
     1
 90
       50
176
     1
290
     0
176
     1
 90
       50
176
     1
 62
   256
176
     0
 40
1.0
176
     0
 90
        2
176
     1
  1
strokes_ogs.tif
176
     1
290
     0
176
     1
 40
1.0
176
     1
 40
1.0
176
     1
  0
VISUALSTYLE
  5
1002C
102
{ACAD_REACTORS
330
10024
102
}
330
10024
100
AcDbVisualStyle
  2
Basic
 70
     7
177
     3
291
     1
 70
    58
 90
        1
176
     1
 90
        0
176
     1
 90
        1
176
     1
 90
        0
176
     1
 40
0.6
176
     1
 40
30.0
176
     1
 62
     7
420
 16777215
176
     1
 90
        0
176
     1
 90
        4
176
     1
 62
     7
176
     1
 62
   257
176
     1
 90
        1
176
     1
 90
        1
176
     1
 40
1.0
176
     1
 90
        8
176
     1
 62
     7
176
     1
 40
1.0
176
     1
 90
        1
176
     1
 90
        6
176
     1
 90
        2
176
     1
 62
     7
176
     1
 90
        5
176
     1
 90
        0
176
     1
 90
        0
176
     1
290
     0
176
     1
 90
        1
176
     1
 40
0.0
176
     1
 90
        0
176
     1
290
     0
176
     1
290
     1
176
     1
290
     1
176
     1
290
     0
176
     1
290
     0
176
     1
290
     0
176
     1
290
     0
176
     1
290
     0
176
     1
290
     0
176
     1
 90
       50
176
     1
 40
0.0
176
     1
 40
1.0
176
     1
 90
        0
176
     1
 62
    18
420
        0
176
     1
 90
       50
176
     1
 90
        3
176
     1
 62
     5
420
      255
176
     1
290
     0
176
     1
 90
       50
176
     1
 90
       50
176
     1
 90
       50
176
     1
290
     0
176
     1
 90
       50
176
     1
 62
   256
176
     0
 40
1.0
176
     0
 90
        2
176
     1
  1
strokes_ogs.tif
176
     1
290
     0
176
     1
 40
1.0
176
     1
 40
1.0
176
     1
  0
VISUALSTYLE
  5
10030
102
{ACAD_REACTORS
330
10024
102
}
330
10024
100
AcDbVisualStyle
  2
Brighten
 70
    12
177
     3
291
     1
 70
    58
 90
        2
176
     1
 90
        2
176
     1
 90
        0
176
     1
 90
        0
176
     1
 40
0.6
176
     1
 40
30.0
176
     1
 62
     7
420
 16777215
176
     1
 90
        1
176
     1
 90
        4
176
     1
 62
     7
176
     1
 62
   257
176
     1
 90
        1
176
     1
 90
        1
176
     1
 40
1.0
176
     1
 90
        8
176
     1
 62
     7
176
     1
 40
1.0
176
     1
 90
        1
176
     1
 90
        6
176
     1
 90
        2
176
     1
 62
     7
176
     1
 90
        5
176
     1
 90
        0
176
     1
 90
        0
176
     1
290
     0
176
     1
 90
        1
176
     1
 40
50.0
176
     1
 90
        0
176
     1
290
     0
176
     1
290
     1
176
     1
290
     1
176
     1
290
     0
176
     1
290
     0
176
     1
290
     0
176
     1
290
     0
176
     1
290
     0
176
     1
290
     0
176
     1
 90
       50
176
     1
 40
0.0
176
     1
 40
1.0
176
     1
 90
        0
176
     1
 62
    18
420
        0
176
     1
 90
       50
176
     1
 90
        3
176
     1
 62
     5
420
      255
176
     1
290
     0
176
     1
 90
       50
176
     1
 90
       50
176
     1
 90
       50
176
     1
290
     0
176
     1
 90
       50
176
     1
 62
   256
176
     0
 40
1.0
176
     0
 90
        2
176
     1
  1
strokes_ogs.tif
176
     1
290
     0
176
     1
 40
1.0
176
     1
 40
1.0
176
     1
  0
VISUALSTYLE
  5
10034
102
{ACAD_REACTORS
330
10024
102
}
330
10024
100
AcDbVisualStyle
  2
ColorChange
 70
    16
177
     3
291
     1
 70
    58
 90
        2
176
     1
 90
        2
176
     1
 90
        3
176
     1
 90
        0
176
     1
 40
0.6
176
     1
 40
30.0
176
     1
 62
     8
420
  8421504
176
     1
 90
        1
176
     1
 90
        4
176
     1
 62
     7
176
     1
 62
   257
176
     1
 90
        1
176
     1
 90
        1
176
     1
 40
1.0
176
     1
 90
        8
176
     1
 62
     8
420
  8421504
176
     1
 40
1.0
176
     1
 90
        1
176
     1
 90
        6
176
     1
 90
        2
176
     1
 62
     7
176
     1
 90
        5
176
     1
 90
        0
176
     1
 90
        0
176
     1
290
     0
176
     1
 90
        1
176
     1
 40
0.0
176
     1
 90
        0
176
     1
290
     0
176
     1
290
     1
176
     1
290
     1
176
     1
290
     0
176
     1
290
     0
176
     1
290
     0
176
     1
290
     0
176
     1
290
     0
176
     1
290
     0
176
     1
 90
       50
176
     1
 40
0.0
176
     1
 40
1.0
176
     1
 90
        0
176
     1
 62
    18
420
        0
176
     1
 90
       50
176
     1
 90
        3
176
     1
 62
     5
420
      255
176
     1
290
     0
176
     1
 90
       50
176
     1
 90
       50
176
     1
 90
       50
176
     1
290
     0
176
     1
 90
       50
176
     1
 62
   256
176
     0
 40
1.0
176
     0
 90
        2
176
     1
  1
strokes_ogs.tif
176
     1
290
     0
176
     1
 40
1.0
176
     1
 40
1.0
176
     1
  0
VISUALSTYLE
  5
1002E
102
{ACAD_REACTORS
330
10024
102
}
330
10024
100
AcDbVisualStyle
  2
Conceptual
 70
     9
177
     3
291
     0
 70
    58
 90
        3
176
     1
 90
        2
176
     1
 90
        0
176
     1
 90
        0
176
     1
 40
0.6
176
     1
 40
30.0
176
     1
 62
     7
420
 16777215
176
     1
 90
        2
176
     1
 90
        2
176
     1
 62
     7
176
     1
 62
   257
176
     1
 90
        1
176
     1
 90
        1
176
     1
 40
179.0
176
     1
 90
        8
176
     1
 62
     7
176
     1
 40
1.0
176
     1
 90
        1
176
     1
 90
        6
176
     1
 90
        2
176
     1
 62
     7
176
     1
 90
        3
176
     1
 90
        0
176
     1
 90
        0
176
     1
290
     0
176
     1
 90
        1
176
     1
 40
0.0
176
     1
 90
        0
176
     1
290
     0
176
     1
290
     1
176
     1
290
     1
176
     1
290
     0
176
     1
290
     0
176
     1
290
     0
176
     1
290
     0
176
     1
290
     0
176
     1
290
     0
176
     1
 90
       50
176
     1
 40
0.0
176
     1
 40
1.0
176
     1
 90
        0
176
     1
 62
    18
420
        0
176
     1
 90
       50
176
     1
 90
        3
176
     1
 62
     5
420
      255
176
     1
290
     0
176
     1
 90
       50
176
     1
 90
       50
176
     1
 90
       50
176
     1
290
     0
176
     1
 90
       50
176
     1
 62
   256
176
     0
 40
1.0
176
     0
 90
        2
176
     1
  1
strokes_ogs.tif
176
     1
290
     0
176
     1
 40
1.0
176
     1
 40
1.0
176
     1
  0
VISUALSTYLE
  5
1002F
102
{ACAD_REACTORS
330
10024
102
}
330
10024
100
AcDbVisualStyle
  2
Dim
 70
    11
177
     3
291
     1
 70
    58
 90
        2
176
     1
 90
        2
176
     1
 90
        0
176
     1
 90
        0
176
     1
 40
0.6
176
     1
 40
30.0
176
     1
 62
     7
420
 16777215
176
     1
 90
        1
176
     1
 90
        4
176
     1
 62
     7
176
     1
 62
   257
176
     1
 90
        1
176
     1
 90
        1
176
     1
 40
1.0
176
     1
 90
        8
176
     1
 62
     7
176
     1
 40
1.0
176
     1
 90
        1
176
     1
 90
        6
176
     1
 90
        2
176
     1
 62
     7
176
     1
 90
        5
176
     1
 90
        0
176
     1
 90
        0
176
     1
290
     0
176
     1
 90
        1
176
     1
 40
-50.0
176
     1
 90
        0
176
     1
290
     0
176
     1
290
     1
176
     1
290
     1
176
     1
290
     0
176
     1
290
     0
176
     1
290
     0
176
     1
290
     0
176
     1
290
     0
176
     1
290
     0
176
     1
 90
       50
176
     1
 40
0.0
176
     1
 40
1.0
176
     1
 90
        0
176
     1
 62
    18
420
        0
176
     1
 90
       50
176
     1
 90
        3
176
     1
 62
     5
420
      255
176
     1
290
     0
176
     1
 90
       50
176
     1
 90
       50
176
     1
 90
       50
176
     1
290
     0
176
     1
 90
       50
176
     1
 62
   256
176
     0
 40
1.0
176
     0
 90
        2
176
     1
  1
strokes_ogs.tif
176
     1
290
     0
176
     1
 40
1.0
176
     1
 40
1.0
176
     1
  0
VISUALSTYLE
  5
10037
102
{ACAD_REACTORS
330
10024
102
}
330
10024
100
AcDbVisualStyle
  2
EdgeColorOff
 70
    22
177
     3
291
     1
 70
    58
 90
        2
176
     0
 90
        2
176
     0
 90
        0
176
     0
 90
        0
176
     0
 40
0.6
176
     0
 40
30.0
176
     0
 62
     7
420
 16777215
176
     0
 90
        1
176
     0
 90
        4
176
     0
 62
     7
176
     0
 62
   257
176
     0
 90
        1
176
     0
 90
        1
176
     0
 40
1.0
176
     0
 90
        8
176
     2
 62
     7
176
     0
 40
1.0
176
     0
 90
        1
176
     0
 90
        6
176
     0
 90
        2
176
     0
 62
     7
176
     0
 90
        5
176
     0
 90
        0
176
     0
 90
        0
176
     0
290
     0
176
     0
 90
        1
176
     0
 40
0.0
176
     0
 90
        0
176
     0
290
     0
176
     0
290
     1
176
     0
290
     1
176
     0
290
     0
176
     0
290
     0
176
     0
290
     0
176
     0
290
     0
176
     0
290
     0
176
     0
290
     0
176
     0
 90
       50
176
     0
 40
0.0
176
     0
 40
1.0
176
     0
 90
        0
176
     0
 62
    18
420
        0
176
     0
 90
       50
176
     0
 90
        3
176
     0
 62
     5
420
      255
176
     0
290
     0
176
     0
 90
       50
176
     0
 90
       50
176
     0
 90
       50
176
     0
290
     0
176
     0
 90
       50
176
     0
 62
   256
176
     0
 40
1.0
176
     0
 90
        2
176
     0
  1
strokes_ogs.tif
176
     0
290
     0
176
     0
 40
1.0
176
     0
 40
1.0
176
     0
  0
VISUALSTYLE
  5
10033
102
{ACAD_REACTORS
330
10024
102
}
330
10024
100
AcDbVisualStyle
  2
Facepattern
 70
    15
177
     3
291
     1
 70
    58
 90
        2
176
     1
 90
        2
176
     1
 90
        0
176
     1
 90
        0
176
     1
 40
0.6
176
     1
 40
30.0
176
     1
 62
     7
420
 16777215
176
     1
 90
        1
176
     1
 90
        4
176
     1
 62
     7
176
     1
 62
   257
176
     1
 90
        1
176
     1
 90
        1
176
     1
 40
1.0
176
     1
 90
        8
176
     1
 62
     7
176
     1
 40
1.0
176
     1
 90
        1
176
     1
 90
        6
176
     1
 90
        2
176
     1
 62
     7
176
     1
 90
        5
176
     1
 90
        0
176
     1
 90
        0
176
     1
290
     0
176
     1
 90
        1
176
     1
 40
0.0
176
     1
 90
        0
176
     1
290
     0
176
     1
290
     1
176
     1
290
     1
176
     1
290
     0
176
     1
290
     0
176
     1
290
     0
176
     1
290
     0
176
     1
290
     0
176
     1
290
     0
176
     1
 90
       50
176
     1
 40
0.0
176
     1
 40
1.0
176
     1
 90
        0
176
     1
 62
    18
420
        0
176
     1
 90
       50
176
     1
 90
        3
176
     1
 62
     5
420
      255
176
     1
290
     0
176
     1
 90
       50
176
     1
 90
       50
176
     1
 90
       50
176
     1
290
     0
176
     1
 90
       50
176
     1
 62
   256
176
     0
 40
1.0
176
     0
 90
        2
176
     1
  1
strokes_ogs.tif
176
     1
290
     0
176
     1
 40
1.0
176
     1
 40
1.0
176
     1
  0
VISUALSTYLE
  5
10025
102
{ACAD_REACTORS
330
10024
102
}
330
10024
100
AcDbVisualStyle
  2
Flat
 70
     0
177
     3
291
     1
 70
    58
 90
        2
176
     1
 90
        1
176
     1
 90
        1
176
     1
 90
        2
176
     1
 40
0.6
176
     1
 40
30.0
176
     1
 62
     7
420
 16777215
176
     1
 90
        0
176
     1
 90
        0
176
     1
 62
     7
176
     1
 62
   257
176
     1
 90
        1
176
     1
 90
        1
176
     1
 40
1.0
176
     1
 90
        8
176
     1
 62
     7
176
     1
 40
1.0
176
     1
 90
        1
176
     1
 90
        6
176
     1
 90
        2
176
     1
 62
     7
176
     1
 90
        5
176
     1
 90
        0
176
     1
 90
        0
176
     1
290
     0
176
     1
 90
       13
176
     1
 40
0.0
176
     1
 90
        0
176
     1
290
     0
176
     1
290
     1
176
     1
290
     1
176
     1
290
     0
176
     1
290
     0
176
     1
290
     0
176
     1
290
     0
176
     1
290
     0
176
     1
290
     0
176
     1
 90
       50
176
     1
 40
0.0
176
     1
 40
1.0
176
     1
 90
        0
176
     1
 62
    18
420
        0
176
     1
 90
       50
176
     1
 90
        3
176
     1
 62
     5
420
      255
176
     1
290
     0
176
     1
 90
       50
176
     1
 90
       50
176
     1
 90
       50
176
     1
290
     0
176
     1
 90
       50
176
     1
 62
   256
176
     0
 40
1.0
176
     0
 90
        2
176
     1
  1
strokes_ogs.tif
176
     1
290
     0
176
     1
 40
1.0
176
     1
 40
1.0
176
     1
  0
VISUALSTYLE
  5
10026
102
{ACAD_REACTORS
330
10024
102
}
330
10024
100
AcDbVisualStyle
  2
FlatWithEdges
 70
     1
177
     3
291
     1
 70
    58
 90
        2
176
     1
 90
        1
176
     1
 90
        1
176
     1
 90
        2
176
     1
 40
0.6
176
     1
 40
30.0
176
     1
 62
     7
420
 16777215
176
     1
 90
        1
176
     1
 90
        0
176
     1
 62
     7
176
     1
 62
   257
176
     1
 90
        1
176
     1
 90
        1
176
     1
 40
1.0
176
     1
 90
        0
176
     1
 62
   257
176
     1
 40
1.0
176
     1
 90
        1
176
     1
 90
        6
176
     1
 90
        2
176
     1
 62
     7
176
     1
 90
        5
176
     1
 90
        0
176
     1
 90
        0
176
     1
290
     0
176
     1
 90
       13
176
     1
 40
0.0
176
     1
 90
        0
176
     1
290
     0
176
     1
290
     1
176
     1
290
     1
176
     1
290
     0
176
     1
290
     0
176
     1
290
     0
176
     1
290
     0
176
     1
290
     0
176
     1
290
     0
176
     1
 90
       50
176
     1
 40
0.0
176
     1
 40
1.0
176
     1
 90
        0
176
     1
 62
    18
420
        0
176
     1
 90
       50
176
     1
 90
        3
176
     1
 62
     5
420
      255
176
     1
290
     0
176
     1
 90
       50
176
     1
 90
       50
176
     1
 90
       50
176
     1
290
     0
176
     1
 90
       50
176
     1
 62
   256
176
     0
 40
1.0
176
     0
 90
        2
176
     1
  1
strokes_ogs.tif
176
     1
290
     0
176
     1
 40
1.0
176
     1
 40
1.0
176
     1
  0
VISUALSTYLE
  5
10027
102
{ACAD_REACTORS
330
10024
102
}
330
10024
100
AcDbVisualStyle
  2
Gouraud
 70
     2
177
     3
291
     1
 70
    58
 90
        2
176
     1
 90
        2
176
     1
 90
        1
176
     1
 90
        2
176
     1
 40
0.6
176
     1
 40
30.0
176
     1
 62
     7
420
 16777215
176
     1
 90
        0
176
     1
 90
        0
176
     1
 62
     7
176
     1
 62
   257
176
     1
 90
        1
176
     1
 90
        1
176
     1
 40
1.0
176
     1
 90
        0
176
     1
 62
     7
176
     1
 40
1.0
176
     1
 90
        1
176
     1
 90
        6
176
     1
 90
        2
176
     1
 62
     7
176
     1
 90
        5
176
     1
 90
        0
176
     1
 90
        0
176
     1
290
     0
176
     1
 90
       13
176
     1
 40
0.0
176
     1
 90
        0
176
     1
290
     0
176
     1
290
     1
176
     1
290
     1
176
     1
290
     0
176
     1
290
     0
176
     1
290
     0
176
     1
290
     0
176
     1
290
     0
176
     1
290
     0
176
     1
 90
       50
176
     1
 40
0.0
176
     1
 40
1.0
176
     1
 90
        0
176
     1
 62
    18
420
        0
176
     1
 90
       50
176
     1
 90
        3
176
     1
 62
     5
420
      255
176
     1
290
     0
176
     1
 90
       50
176
     1
 90
       50
176
     1
 90
       50
176
     1
290
     0
176
     1
 90
       50
176
     1
 62
   256
176
     0
 40
1.0
176
     0
 90
        2
176
     1
  1
strokes_ogs.tif
176
     1
290
     0
176
     1
 40
1.0
176
     1
 40
1.0
176
     1
  0
VISUALSTYLE
  5
10028
102
{ACAD_REACTORS
330
10024
102
}
330
10024
100
AcDbVisualStyle
  2
GouraudWithEdges
 70
     3
177
     3
291
     1
 70
    58
 90
        2
176
     1
 90
        2
176
     1
 90
        1
176
     1
 90
        2
176
     1
 40
0.6
176
     1
 40
30.0
176
     1
 62
     7
420
 16777215
176
     1
 90
        1
176
     1
 90
        0
176
     1
 62
     7
176
     1
 62
   257
176
     1
 90
        1
176
     1
 90
        1
176
     1
 40
1.0
176
     1
 90
        0
176
     1
 62
   257
176
     1
 40
1.0
176
     1
 90
        1
176
     1
 90
        6
176
     1
 90
        2
176
     1
 62
     7
176
     1
 90
        5
176
     1
 90
        0
176
     1
 90
        0
176
     1
290
     0
176
     1
 90
       13
176
     1
 40
0.0
176
     1
 90
        0
176
     1
290
     0
176
     1
290
     1
176
     1
290
     1
176
     1
290
     0
176
     1
290
     0
176
     1
290
     0
176
     1
290
     0
176
     1
290
     0
176
     1
290
     0
176
     1
 90
       50
176
     1
 40
0.0
176
     1
 40
1.0
176
     1
 90
        0
176
     1
 62
    18
420
        0
176
     1
 90
       50
176
     1
 90
        3
176
     1
 62
     5
420
      255
176
     1
290
     0
176
     1
 90
       50
176
     1
 90
       50
176
     1
 90
       50
176
     1
290
     0
176
     1
 90
       50
176
     1
 62
   256
176
     0
 40
1.0
176
     0
 90
        2
176
     1
  1
strokes_ogs.tif
176
     1
290
     0
176
     1
 40
1.0
176
     1
 40
1.0
176
     1
  0
VISUALSTYLE
  5
1002B
102
{ACAD_REACTORS
330
10024
102
}
330
10024
100
AcDbVisualStyle
  2
Hidden
 70
     6
177
     3
291
     0
 70
    58
 90
        1
176
     1
 90
        2
176
     1
 90
        2
176
     1
 90
        0
176
     1
 40
0.6
176
     1
 40
30.0
176
     1
 62
     7
420
 16777215
176
     1
 90
        2
176
     1
 90
        2
176
     1
 62
     7
176
     1
 62
   257
176
     1
 90
        2
176
     1
 90
        1
176
     1
 40
40.0
176
     1
 90
        0
176
     1
 62
   257
176
     1
 40
1.0
176
     1
 90
        1
176
     1
 90
        6
176
     1
 90
        2
176
     1
 62
     7
176
     1
 90
        3
176
     1
 90
        0
176
     1
 90
        0
176
     1
290
     0
176
     1
 90
        1
176
     1
 40
0.0
176
     1
 90
        0
176
     1
290
     0
176
     1
290
     1
176
     1
290
     1
176
     1
290
     0
176
     1
290
     0
176
     1
290
     0
176
     1
290
     0
176
     1
290
     0
176
     1
290
     0
176
     1
 90
       50
176
     1
 40
0.0
176
     1
 40
1.0
176
     1
 90
        0
176
     1
 62
    18
420
        0
176
     1
 90
       50
176
     1
 90
        3
176
     1
 62
     5
420
      255
176
     1
290
     0
176
     1
 90
       50
176
     1
 90
       50
176
     1
 90
       50
176
     1
290
     0
176
     1
 90
       50
176
     1
 62
   256
176
     0
 40
1.0
176
     0
 90
        2
176
     1
  1
strokes_ogs.tif
176
     1
290
     0
176
     1
 40
1.0
176
     1
 40
1.0
176
     1
  0
VISUALSTYLE
  5
10035
102
{ACAD_REACTORS
330
10024
102
}
330
10024
100
AcDbVisualStyle
  2
JitterOff
 70
    20
177
     3
291
     1
 70
    58
 90
        2
176
     0
 90
        2
176
     0
 90
        0
176
     0
 90
        0
176
     0
 40
0.6
176
     0
 40
30.0
176
     0
 62
     7
420
 16777215
176
     0
 90
        1
176
     0
 90
        4
176
     0
 62
     7
176
     0
 62
   257
176
     0
 90
        1
176
     0
 90
        1
176
     0
 40
1.0
176
     0
 90
       10
176
     2
 62
     7
176
     0
 40
1.0
176
     0
 90
        1
176
     0
 90
        6
176
     0
 90
        2
176
     0
 62
     7
176
     0
 90
        5
176
     0
 90
        0
176
     0
 90
        0
176
     0
290
     0
176
     0
 90
        1
176
     0
 40
0.0
176
     0
 90
        0
176
     0
290
     0
176
     0
290
     1
176
     0
290
     1
176
     0
290
     0
176
     0
290
     0
176
     0
290
     0
176
     0
290
     0
176
     0
290
     0
176
     0
290
     0
176
     0
 90
       50
176
     0
 40
0.0
176
     0
 40
1.0
176
     0
 90
        0
176
     0
 62
    18
420
        0
176
     0
 90
       50
176
     0
 90
        3
176
     0
 62
     5
420
      255
176
     0
290
     0
176
     0
 90
       50
176
     0
 90
       50
176
     0
 90
       50
176
     0
290
     0
176
     0
 90
       50
176
     0
 62
   256
176
     0
 40
1.0
176
     0
 90
        2
176
     0
  1
strokes_ogs.tif
176
     0
290
     0
176
     0
 40
1.0
176
     0
 40
1.0
176
     0
  0
VISUALSTYLE
  5
10032
102
{ACAD_REACTORS
330
10024
102
}
330
10024
100
AcDbVisualStyle
  2
Linepattern
 70
    14
177
     3
291
     1
 70
    58
 90
        2
176
     1
 90
        2
176
     1
 90
        0
176
     1
 90
        0
176
     1
 40
0.6
176
     1
 40
30.0
176
     1
 62
     7
420
 16777215
176
     1
 90
        1
176
     1
 90
        4
176
     1
 62
     7
176
     1
 62
   257
176
     1
 90
        7
176
     1
 90
        7
176
     1
 40
1.0
176
     1
 90
        8
176
     1
 62
     7
176
     1
 40
1.0
176
     1
 90
        1
176
     1
 90
        6
176
     1
 90
        2
176
     1
 62
     7
176
     1
 90
        5
176
     1
 90
        0
176
     1
 90
        0
176
     1
290
     0
176
     1
 90
        1
176
     1
 40
0.0
176
     1
 90
        0
176
     1
290
     0
176
     1
290
     1
176
     1
290
     1
176
     1
290
     0
176
     1
290
     0
176
     1
290
     0
176
     1
290
     0
176
     1
290
     0
176
     1
290
     0
176
     1
 90
       50
176
     1
 40
0.0
176
     1
 40
1.0
176
     1
 90
        0
176
     1
 62
    18
420
        0
176
     1
 90
       50
176
     1
 90
        3
176
     1
 62
     5
420
      255
176
     1
290
     0
176
     1
 90
       50
176
     1
 90
       50
176
     1
 90
       50
176
     1
290
     0
176
     1
 90
       50
176
     1
 62
   256
176
     0
 40
1.0
176
     0
 90
        2
176
     1
  1
strokes_ogs.tif
176
     1
290
     0
176
     1
 40
1.0
176
     1
 40
1.0
176
     1
  0
VISUALSTYLE
  5
10036
102
{ACAD_REACTORS
330
10024
102
}
330
10024
100
AcDbVisualStyle
  2
OverhangOff
 70
    21
177
     3
291
     1
 70
    58
 90
        2
176
     0
 90
        2
176
     0
 90
        0
176
     0
 90
        0
176
     0
 40
0.6
176
     0
 40
30.0
176
     0
 62
     7
420
 16777215
176
     0
 90
        1
176
     0
 90
        4
176
     0
 62
     7
176
     0
 62
   257
176
     0
 90
        1
176
     0
 90
        1
176
     0
 40
1.0
176
     0
 90
        9
176
     2
 62
     7
176
     0
 40
1.0
176
     0
 90
        1
176
     0
 90
        6
176
     0
 90
        2
176
     0
 62
     7
176
     0
 90
        5
176
     0
 90
        0
176
     0
 90
        0
176
     0
290
     0
176
     0
 90
        1
176
     0
 40
0.0
176
     0
 90
        0
176
     0
290
     0
176
     0
290
     1
176
     0
290
     1
176
     0
290
     0
176
     0
290
     0
176
     0
290
     0
176
     0
290
     0
176
     0
290
     0
176
     0
290
     0
176
     0
 90
       50
176
     0
 40
0.0
176
     0
 40
1.0
176
     0
 90
        0
176
     0
 62
    18
420
        0
176
     0
 90
       50
176
     0
 90
        3
176
     0
 62
     5
420
      255
176
     0
290
     0
176
     0
 90
       50
176
     0
 90
       50
176
     0
 90
       50
176
     0
290
     0
176
     0
 90
       50
176
     0
 62
   256
176
     0
 40
1.0
176
     0
 90
        2
176
     0
  1
strokes_ogs.tif
176
     0
290
     0
176
     0
 40
1.0
176
     0
 40
1.0
176
     0
  0
VISUALSTYLE
  5
1002D
102
{ACAD_REACTORS
330
10024
102
}
330
10024
100
AcDbVisualStyle
  2
Realistic
 70
     8
177
     3
291
     0
 70
    58
 90
        2
176
     1
 90
        3
176
     1
 90
        0
176
     1
 90
        2
176
     1
 40
0.6
176
     1
 40
30.0
176
     1
 62
     7
420
 16777215
176
     1
 90
        0
176
     1
 90
        0
176
     1
 62
     7
176
     1
 62
   257
176
     1
 90
        1
176
     1
 90
        1
176
     1
 40
1.0
176
     1
 90
        8
176
     1
 62
   257
176
     1
 40
1.0
176
     1
 90
        1
176
     1
 90
        6
176
     1
 90
        2
176
     1
 62
     7
176
     1
 90
        3
176
     1
 90
        0
176
     1
 90
        0
176
     1
290
     0
176
     1
 90
       13
176
     1
 40
0.0
176
     1
 90
        0
176
     1
290
     0
176
     1
290
     1
176
     1
290
     1
176
     1
290
     0
176
     1
290
     0
176
     1
290
     0
176
     1
290
     0
176
     1
290
     0
176
     1
290
     0
176
     1
 90
       50
176
     1
 40
0.0
176
     1
 40
1.0
176
     1
 90
        0
176
     1
 62
    18
420
        0
176
     1
 90
       50
176
     1
 90
        3
176
     1
 62
     5
420
      255
176
     1
290
     0
176
     1
 90
       50
176
     1
 90
       50
176
     1
 90
       50
176
     1
290
     0
176
     1
 90
       50
176
     1
 62
   256
176
     0
 40
1.0
176
     0
 90
        2
176
     1
  1
strokes_ogs.tif
176
     1
290
     0
176
     1
 40
1.0
176
     1
 40
1.0
176
     1
  0
VISUALSTYLE
  5
1003C
102
{ACAD_REACTORS
330
10024
102
}
330
10024
100
AcDbVisualStyle
  2
Shaded
 70
    27
177
     3
291
     0
 70
    58
 90
        2
176
     1
 90
        2
176
     1
 90
        1
176
     1
 90
        2
176
     1
 40
0.6
176
     1
 40
30.0
176
     1
 62
     7
420
 16777215
176
     1
 90
        0
176
     1
 90
        4
176
     1
 62
     7
176
     1
 62
   257
176
     1
 90
        1
176
     1
 90
        1
176
     1
 40
1.0
176
     1
 90
        8
176
     1
 62
   257
176
     1
 40
1.0
176
     1
 90
        1
176
     1
 90
        6
176
     1
 90
        2
176
     1
 62
     8
420
  7895160
176
     1
 90
        3
176
     1
 90
        0
176
     1
 90
        0
176
     1
290
     0
176
     1
 90
        5
176
     1
 40
0.0
176
     1
 90
        0
176
     1
290
     0
176
     1
290
     1
176
     1
290
     1
176
     1
290
     0
176
     1
290
     0
176
     1
290
     0
176
     1
290
     0
176
     1
290
     0
176
     1
290
     0
176
     1
 90
       50
176
     1
 40
0.0
176
     1
 40
1.0
176
     1
 90
        0
176
     1
 62
    18
420
        0
176
     1
 90
       50
176
     1
 90
        3
176
     1
 62
     5
420
      255
176
     1
290
     0
176
     1
 90
       50
176
     1
 90
       50
176
     1
 90
       50
176
     1
290
     0
176
     1
 90
       50
176
     1
 62
   256
176
     0
 40
1.0
176
     0
 90
        2
176
     1
  1
strokes_ogs.tif
176
     1
290
     0
176
     1
 40
1.0
176
     1
 40
1.0
176
     1
  0
VISUALSTYLE
  5
1003B
102
{ACAD_REACTORS
330
10024
102
}
330
10024
100
AcDbVisualStyle
  2
Shaded with edges
 70
    26
177
     3
291
     0
 70
    58
 90
        2
176
     1
 90
        2
176
     1
 90
        1
176
     1
 90
        2
176
     1
 40
0.6
176
     1
 40
30.0
176
     1
 62
     7
420
 16777215
176
     1
 90
        1
176
     1
 90
       10
176
     1
 62
     7
176
     1
 62
   257
176
     1
 90
        2
176
     1
 90
        1
176
     1
 40
1.0
176
     1
 90
        8
176
     1
 62
   257
176
     1
 40
1.0
176
     1
 90
        1
176
     1
 90
        6
176
     1
 90
        2
176
     1
 62
     7
176
     1
 90
        3
176
     1
 90
        0
176
     1
 90
        0
176
     1
290
     0
176
     1
 90
        5
176
     1
 40
0.0
176
     1
 90
        0
176
     1
290
     0
176
     1
290
     1
176
     1
290
     1
176
     1
290
     0
176
     1
290
     0
176
     1
290
     0
176
     1
290
     0
176
     1
290
     0
176
     1
290
     0
176
     1
 90
       50
176
     1
 40
0.0
176
     1
 40
1.0
176
     1
 90
        0
176
     1
 62
    18
420
        0
176
     1
 90
       50
176
     1
 90
        3
176
     1
 62
     5
420
      255
176
     1
290
     0
176
     1
 90
       50
176
     1
 90
       50
176
     1
 90
       50
176
     1
290
     0
176
     1
 90
       50
176
     1
 62
   256
176
     0
 40
1.0
176
     0
 90
        2
176
     1
  1
strokes_ogs.tif
176
     1
290
     0
176
     1
 40
1.0
176
     1
 40
1.0
176
     1
  0
VISUALSTYLE
  5
10038
102
{ACAD_REACTORS
330
10024
102
}
330
10024
100
AcDbVisualStyle
  2
Shades of Gray
 70
    23
177
     3
291
     0
 70
    58
 90
        2
176
     1
 90
        2
176
     1
 90
        3
176
     1
 90
        0
176
     1
 40
0.6
176
     1
 40
30.0
176
     1
 62
     7
420
 16777215
176
     1
 90
        2
176
     1
 90
        2
176
     1
 62
     7
176
     1
 62
     7
176
     1
 90
        1
176
     1
 90
        1
176
     1
 40
40.0
176
     1
 90
        8
176
     1
 62
     7
176
     1
 40
1.0
176
     1
 90
        1
176
     1
 90
        6
176
     1
 90
        2
176
     1
 62
     7
176
     1
 90
        3
176
     1
 90
        0
176
     1
 90
        0
176
     1
290
     0
176
     1
 90
        1
176
     1
 40
0.0
176
     1
 90
        0
176
     1
290
     0
176
     1
290
     1
176
     1
290
     1
176
     1
290
     0
176
     1
290
     0
176
     1
290
     0
176
     1
290
     0
176
     1
290
     0
176
     1
290
     0
176
     1
 90
       50
176
     1
 40
0.0
176
     1
 40
1.0
176
     1
 90
        0
176
     1
 62
    18
420
        0
176
     1
 90
       50
176
     1
 90
        3
176
     1
 62
     5
420
      255
176
     1
290
     0
176
     1
 90
       50
176
     1
 90
       50
176
     1
 90
       50
176
     1
290
     0
176
     1
 90
       50
176
     1
 62
   256
176
     0
 40
1.0
176
     0
 90
        2
176
     1
  1
strokes_ogs.tif
176
     1
290
     0
176
     1
 40
1.0
176
     1
 40
1.0
176
     1
  0
VISUALSTYLE
  5
10039
102
{ACAD_REACTORS
330
10024
102
}
330
10024
100
AcDbVisualStyle
  2
Sketchy
 70
    24
177
     3
291
     0
 70
    58
 90
        1
176
     1
 90
        2
176
     1
 90
        2
176
     1
 90
        0
176
     1
 40
0.6
176
     1
 40
30.0
176
     1
 62
     7
420
 16777215
176
     1
 90
        2
176
     1
 90
        2
176
     1
 62
     7
176
     1
 62
     7
176
     1
 90
        1
176
     1
 90
        1
176
     1
 40
40.0
176
     1
 90
       11
176
     1
 62
     7
176
     1
 40
1.0
176
     1
 90
        1
176
     1
 90
        6
176
     1
 90
        2
176
     1
 62
     7
176
     1
 90
        6
176
     1
 90
        0
176
     1
 90
        0
176
     1
290
     0
176
     1
 90
        1
176
     1
 40
0.0
176
     1
 90
        0
176
     1
290
     0
176
     1
290
     1
176
     1
290
     1
176
     1
290
     0
176
     1
290
     0
176
     1
290
     0
176
     1
290
     0
176
     1
290
     0
176
     1
290
     0
176
     1
 90
       50
176
     1
 40
0.0
176
     1
 40
1.0
176
     1
 90
        0
176
     1
 62
    18
420
        0
176
     1
 90
       50
176
     1
 90
        3
176
     1
 62
     5
420
      255
176
     1
290
     0
176
     1
 90
       50
176
     1
 90
       50
176
     1
 90
       50
176
     1
290
     0
176
     1
 90
       50
176
     1
 62
   256
176
     0
 40
1.0
176
     0
 90
        2
176
     1
  1
strokes_ogs.tif
176
     1
290
     0
176
     1
 40
1.0
176
     1
 40
1.0
176
     1
  0
VISUALSTYLE
  5
10031
102
{ACAD_REACTORS
330
10024
102
}
330
10024
100
AcDbVisualStyle
  2
Thicken
 70
    13
177
     3
291
     1
 70
    58
 90
        2
176
     1
 90
        2
176
     1
 90
        0
176
     1
 90
        0
176
     1
 40
0.6
176
     1
 40
30.0
176
     1
 62
     7
420
 16777215
176
     1
 90
        1
176
     1
 90
        4
176
     1
 62
     7
176
     1
 62
   257
176
     1
 90
        1
176
     1
 90
        1
176
     1
 40
1.0
176
     1
 90
       12
176
     1
 62
     7
176
     1
 40
1.0
176
     1
 90
        1
176
     1
 90
        6
176
     1
 90
        2
176
     1
 62
     7
176
     1
 90
        5
176
     1
 90
        0
176
     1
 90
        0
176
     1
290
     0
176
     1
 90
        1
176
     1
 40
0.0
176
     1
 90
        0
176
     1
290
     0
176
     1
290
     1
176
     1
290
     1
176
     1
290
     0
176
     1
290
     0
176
     1
290
     0
176
     1
290
     0
176
     1
290
     0
176
     1
290
     0
176
     1
 90
       50
176
     1
 40
0.0
176
     1
 40
1.0
176
     1
 90
        0
176
     1
 62
    18
420
        0
176
     1
 90
       50
176
     1
 90
        3
176
     1
 62
     5
420
      255
176
     1
290
     0
176
     1
 90
       50
176
     1
 90
       50
176
     1
 90
       50
176
     1
290
     0
176
     1
 90
       50
176
     1
 62
   256
176
     0
 40
1.0
176
     0
 90
        2
176
     1
  1
strokes_ogs.tif
176
     1
290
     0
176
     1
 40
1.0
176
     1
 40
1.0
176
     1
  0
VISUALSTYLE
  5
1002A
102
{ACAD_REACTORS
330
10024
102
}
330
10024
100
AcDbVisualStyle
  2
Wireframe
 70
     5
177
     3
291
     0
 70
    58
 90
        0
176
     1
 90
        2
176
     1
 90
        0
176
     1
 90
        0
176
     1
 40
0.6
176
     1
 40
30.0
176
     1
 62
     7
420
 16777215
176
     1
 90
        1
176
     1
 90
        4
176
     1
 62
     7
176
     1
 62
   257
176
     1
 90
        1
176
     1
 90
        1
176
     1
 40
1.0
176
     1
 90
        0
176
     1
 62
   257
176
     1
 40
1.0
176
     1
 90
        1
176
     1
 90
        6
176
     1
 90
        2
176
     1
 62
     7
176
     1
 90
        3
176
     1
 90
        0
176
     1
 90
        0
176
     1
290
     0
176
     1
 90
        1
176
     1
 40
0.0
176
     1
 90
        0
176
     1
290
     0
176
     1
290
     1
176
     1
290
     1
176
     1
290
     0
176
     1
290
     0
176
     1
290
     0
176
     1
290
     0
176
     1
290
     0
176
     1
290
     0
176
     1
 90
       50
176
     1
 40
0.0
176
     1
 40
1.0
176
     1
 90
        0
176
     1
 62
    18
420
        0
176
     1
 90
       50
176
     1
 90
        3
176
     1
 62
     5
420
      255
176
     1
290
     0
176
     1
 90
       50
176
     1
 90
       50
176
     1
 90
       50
176
     1
290
     0
176
     1
 90
       50
176
     1
 62
   256
176
     0
 40
1.0
176
     0
 90
        2
176
     1
  1
strokes_ogs.tif
176
     1
290
     0
176
     1
 40
1.0
176
     1
 40
1.0
176
     1
  0
VISUALSTYLE
  5
1003A
102
{ACAD_REACTORS
330
10024
102
}
330
10024
100
AcDbVisualStyle
  2
X-Ray
 70
    25
177
     3
291
     0
 70
    58
 90
        2
176
     1
 90
        2
176
     1
 90
        1
176
     1
 90
        1
176
     1
 40
0.5
176
     1
 40
30.0
176
     1
 62
     7
420
 16777215
176
     1
 90
        1
176
     1
 90
        0
176
     1
 62
     7
176
     1
 62
   257
176
     1
 90
        1
176
     1
 90
        1
176
     1
 40
1.0
176
     1
 90
        8
176
     1
 62
     7
176
     1
 40
1.0
176
     1
 90
        1
176
     1
 90
        6
176
     1
 90
        2
176
     1
 62
     7
176
     1
 90
        3
176
     1
 90
        0
176
     1
 90
        0
176
     1
290
     0
176
     1
 90
       13
176
     1
 40
0.0
176
     1
 90
        0
176
     1
290
     0
176
     1
290
     1
176
     1
290
     1
176
     1
290
     0
176
     1
290
     0
176
     1
290
     0
176
     1
290
     0
176
     1
290
     0
176
     1
290
     0
176
     1
 90
       50
176
     1
 40
0.0
176
     1
 40
1.0
176
     1
 90
        0
176
     1
 62
    18
420
        0
176
     1
 90
       50
176
     1
 90
        3
176
     1
 62
     5
420
      255
176
     1
290
     0
176
     1
 90
       50
176
     1
 90
       50
176
     1
 90
       50
176
     1
290
     0
176
     1
 90
       50
176
     1
 62
   256
176
     0
 40
1.0
176
     0
 90
        2
176
     1
  1
strokes_ogs.tif
176
     1
290
     0
176
     1
 40
1.0
176
     1
 40
1.0
176
     1
  0
DICTIONARYVAR
  5
10047
102
{ACAD_REACTORS
330
10046
102
}
330
10046
100
DictionaryVariables
280
     0
  1
1:1
  0
DICTIONARYVAR
  5
10048
102
{ACAD_REACTORS
330
10046
102
}
330
10046
100
DictionaryVariables
280
     0
  1
Standard
  0
DICTIONARYVAR
  5
1004A
102
{ACAD_REACTORS
330
10046
102
}
330
10046
100
DictionaryVariables
280
     0
  1
0
  0
DICTIONARY
  5
100E9
330
10042
100
AcDbDictionary
280
     1
281
     1
  3
ACAD_ROUNDTRIP_2008_TABLESTYLE_CELLSTYLEMAP
360
100EA
  0
CELLSTYLEMAP
  5
100EA
102
{ACAD_REACTORS
330
100E9
102
}
330
100E9
100
AcDbCellStyleMap
 90
        3
300
CELLSTYLE
  1
TABLEFORMAT_BEGIN
 90
        5
170
     1
 91
        0
 92
        0
 62
   257
 93
        1
300
CONTENTFORMAT
  1
CONTENTFORMAT_BEGIN
 90
        0
 91
        0
 92
        4
 93
        0
300

 40
0.0
140
1.0
 94
        5
 62
     0
340
11
144
6.0
309
CONTENTFORMAT_END
171
     1
301
MARGIN
  1
CELLMARGIN_BEGIN
 40
1.5
 40
1.5
 40
1.5
 40
1.5
 40
1.5
 40
1.5
309
CELLMARGIN_END
 94
        6
 95
        1
302
GRIDFORMAT
  1
GRIDFORMAT_BEGIN
 90
        0
 91
        1
 62
     0
 92
       -2
340
14
 93
        0
 40
0.045
309
GRIDFORMAT_END
 95
        2
302
GRIDFORMAT
  1
GRIDFORMAT_BEGIN
 90
        0
 91
        1
 62
     0
 92
       -2
340
14
 93
        0
 40
0.045
309
GRIDFORMAT_END
 95
        4
302
GRIDFORMAT
  1
GRIDFORMAT_BEGIN
 90
        0
 91
        1
 62
     0
 92
       -2
340
14
 93
        0
 40
0.045
309
GRIDFORMAT_END
 95
        8
302
GRIDFORMAT
  1
GRIDFORMAT_BEGIN
 90
        0
 91
        1
 62
     0
 92
       -2
340
14
 93
        0
 40
0.045
309
GRIDFORMAT_END
 95
       16
302
GRIDFORMAT
  1
GRIDFORMAT_BEGIN
 90
        0
 91
        1
 62
     0
 92
       -2
340
14
 93
        0
 40
0.045
309
GRIDFORMAT_END
 95
       32
302
GRIDFORMAT
  1
GRIDFORMAT_BEGIN
 90
        0
 91
        1
 62
     0
 92
       -2
340
14
 93
        0
 40
0.045
309
GRIDFORMAT_END
309
TABLEFORMAT_END
  1
CELLSTYLE_BEGIN
 90
        1
 91
        1
300
_TITLE
309
CELLSTYLE_END
300
CELLSTYLE
  1
TABLEFORMAT_BEGIN
 90
        5
170
     1
 91
        0
 92
        0
 62
   257
 93
        1
300
CONTENTFORMAT
  1
CONTENTFORMAT_BEGIN
 90
        0
 91
        0
 92
        4
 93
        0
300

 40
0.0
140
1.0
 94
        5
 62
     0
340
11
144
4.5
309
CONTENTFORMAT_END
171
     1
301
MARGIN
  1
CELLMARGIN_BEGIN
 40
1.5
 40
1.5
 40
1.5
 40
1.5
 40
1.5
 40
1.5
309
CELLMARGIN_END
 94
        6
 95
        1
302
GRIDFORMAT
  1
GRIDFORMAT_BEGIN
 90
        0
 91
        1
 62
     0
 92
       -2
340
14
 93
        0
 40
0.045
309
GRIDFORMAT_END
 95
        2
302
GRIDFORMAT
  1
GRIDFORMAT_BEGIN
 90
        0
 91
        1
 62
     0
 92
       -2
340
14
 93
        0
 40
0.045
309
GRIDFORMAT_END
 95
        4
302
GRIDFORMAT
  1
GRIDFORMAT_BEGIN
 90
        0
 91
        1
 62
     0
 92
       -2
340
14
 93
        0
 40
0.045
309
GRIDFORMAT_END
 95
        8
302
GRIDFORMAT
  1
GRIDFORMAT_BEGIN
 90
        0
 91
        1
 62
     0
 92
       -2
340
14
 93
        0
 40
0.045
309
GRIDFORMAT_END
 95
       16
302
GRIDFORMAT
  1
GRIDFORMAT_BEGIN
 90
        0
 91
        1
 62
     0
 92
       -2
340
14
 93
        0
 40
0.045
309
GRIDFORMAT_END
 95
       32
302
GRIDFORMAT
  1
GRIDFORMAT_BEGIN
 90
        0
 91
        1
 62
     0
 92
       -2
340
14
 93
        0
 40
0.045
309
GRIDFORMAT_END
309
TABLEFORMAT_END
  1
CELLSTYLE_BEGIN
 90
        2
 91
        1
300
_HEADER
309
CELLSTYLE_END
300
CELLSTYLE
  1
TABLEFORMAT_BEGIN
 90
        5
170
     1
 91
        0
 92
        0
 62
   257
 93
        1
300
CONTENTFORMAT
  1
CONTENTFORMAT_BEGIN
 90
        0
 91
        0
 92
        4
 93
        0
300

 40
0.0
140
1.0
 94
        2
 62
     0
340
11
144
4.5
309
CONTENTFORMAT_END
171
     1
301
MARGIN
  1
CELLMARGIN_BEGIN
 40
1.5
 40
1.5
 40
1.5
 40
1.5
 40
1.5
 40
1.5
309
CELLMARGIN_END
 94
        6
 95
        1
302
GRIDFORMAT
  1
GRIDFORMAT_BEGIN
 90
        0
 91
        1
 62
     0
 92
       -2
340
14
 93
        0
 40
0.045
309
GRIDFORMAT_END
 95
        2
302
GRIDFORMAT
  1
GRIDFORMAT_BEGIN
 90
        0
 91
        1
 62
     0
 92
       -2
340
14
 93
        0
 40
0.045
309
GRIDFORMAT_END
 95
        4
302
GRIDFORMAT
  1
GRIDFORMAT_BEGIN
 90
        0
 91
        1
 62
     0
 92
       -2
340
14
 93
        0
 40
0.045
309
GRIDFORMAT_END
 95
        8
302
GRIDFORMAT
  1
GRIDFORMAT_BEGIN
 90
        0
 91
        1
 62
     0
 92
       -2
340
14
 93
        0
 40
0.045
309
GRIDFORMAT_END
 95
       16
302
GRIDFORMAT
  1
GRIDFORMAT_BEGIN
 90
        0
 91
        1
 62
     0
 92
       -2
340
14
 93
        0
 40
0.045
309
GRIDFORMAT_END
 95
       32
302
GRIDFORMAT
  1
GRIDFORMAT_BEGIN
 90
        0
 91
        1
 62
     0
 92
       -2
340
14
 93
        0
 40
0.045
309
GRIDFORMAT_END
309
TABLEFORMAT_END
  1
CELLSTYLE_BEGIN
 90
        3
 91
        2
300
_DATA
309
CELLSTYLE_END
  0
ENDSEC
  0
EOF
